<svg width="714" height="600" viewBox="0 0 714 600" fill="none" xmlns="http://www.w3.org/2000/svg">
<rect width="714" height="600" rx="30" transform="matrix(-1 0 0 1 714 0.00012207)" fill="#C7F2AB"/>
<rect x="117" y="72.0001" width="480" height="457" rx="20" fill="white"/>
<path d="M117 91.0001C117 79.9544 125.954 71.0001 137 71.0001H577C588.046 71.0001 597 79.9544 597 91.0001V115H117V91.0001Z" fill="#1668E8"/>
<circle cx="143" cy="93.0001" r="4" fill="#FF0606"/>
<circle cx="157" cy="93.0001" r="4" fill="#30C1FF"/>
<circle cx="171" cy="93.0001" r="4" fill="#A3DC2F"/>
<path d="M167 458.5C167 456.015 169.015 454 171.5 454H217.5C219.985 454 222 456.015 222 458.5C222 460.985 219.985 463 217.5 463H171.5C169.015 463 167 460.985 167 458.5Z" fill="#F3F3F3"/>
<path d="M174.705 492.235C173.58 492.235 172.577 492.042 171.696 491.655C170.821 491.269 170.125 490.732 169.608 490.045C169.097 489.351 168.818 488.547 168.773 487.633H170.92C170.966 488.195 171.159 488.681 171.5 489.09C171.841 489.493 172.287 489.806 172.838 490.027C173.389 490.249 174 490.36 174.67 490.36C175.42 490.36 176.085 490.229 176.665 489.968C177.244 489.706 177.699 489.343 178.028 488.877C178.358 488.411 178.523 487.871 178.523 487.258C178.523 486.616 178.364 486.05 178.045 485.562C177.727 485.067 177.261 484.681 176.648 484.402C176.034 484.124 175.284 483.985 174.398 483.985H173V482.11H174.398C175.091 482.11 175.699 481.985 176.222 481.735C176.75 481.485 177.162 481.133 177.457 480.678C177.759 480.223 177.909 479.689 177.909 479.076C177.909 478.485 177.778 477.971 177.517 477.533C177.256 477.096 176.886 476.755 176.409 476.51C175.938 476.266 175.381 476.144 174.739 476.144C174.136 476.144 173.568 476.255 173.034 476.476C172.506 476.692 172.074 477.008 171.739 477.422C171.403 477.831 171.222 478.326 171.193 478.905H169.148C169.182 477.991 169.457 477.189 169.974 476.502C170.491 475.809 171.168 475.269 172.003 474.883C172.844 474.496 173.767 474.303 174.773 474.303C175.852 474.303 176.778 474.522 177.551 474.959C178.324 475.391 178.918 475.962 179.332 476.672C179.747 477.383 179.955 478.15 179.955 478.973C179.955 479.956 179.696 480.795 179.179 481.488C178.668 482.181 177.972 482.661 177.091 482.928V483.064C178.193 483.246 179.054 483.715 179.673 484.471C180.293 485.221 180.602 486.15 180.602 487.258C180.602 488.206 180.344 489.059 179.827 489.814C179.315 490.564 178.616 491.155 177.73 491.587C176.844 492.019 175.835 492.235 174.705 492.235ZM189.543 492.235C188.543 492.235 187.642 492.036 186.841 491.638C186.04 491.241 185.398 490.695 184.915 490.002C184.432 489.309 184.168 488.519 184.122 487.633H186.168C186.247 488.422 186.605 489.076 187.241 489.593C187.884 490.104 188.651 490.36 189.543 490.36C190.259 490.36 190.895 490.192 191.452 489.857C192.014 489.522 192.455 489.062 192.773 488.476C193.097 487.885 193.259 487.218 193.259 486.473C193.259 485.712 193.091 485.033 192.756 484.437C192.426 483.834 191.972 483.36 191.392 483.013C190.813 482.667 190.151 482.491 189.406 482.485C188.872 482.479 188.324 482.562 187.761 482.732C187.199 482.897 186.736 483.11 186.372 483.371L184.395 483.133L185.452 474.542H194.52V476.417H187.224L186.611 481.564H186.713C187.071 481.28 187.52 481.045 188.06 480.857C188.599 480.67 189.162 480.576 189.747 480.576C190.815 480.576 191.767 480.831 192.602 481.343C193.443 481.848 194.102 482.542 194.58 483.422C195.062 484.303 195.304 485.309 195.304 486.439C195.304 487.553 195.054 488.547 194.554 489.422C194.06 490.292 193.378 490.979 192.509 491.485C191.639 491.985 190.651 492.235 189.543 492.235ZM204.383 492.235C203.099 492.235 202.005 491.885 201.102 491.187C200.198 490.482 199.508 489.462 199.031 488.127C198.553 486.786 198.315 485.167 198.315 483.269C198.315 481.383 198.553 479.772 199.031 478.437C199.513 477.096 200.207 476.073 201.11 475.368C202.019 474.658 203.11 474.303 204.383 474.303C205.656 474.303 206.744 474.658 207.647 475.368C208.556 476.073 209.249 477.096 209.727 478.437C210.21 479.772 210.451 481.383 210.451 483.269C210.451 485.167 210.212 486.786 209.735 488.127C209.258 489.462 208.567 490.482 207.664 491.187C206.761 491.885 205.667 492.235 204.383 492.235ZM204.383 490.36C205.656 490.36 206.644 489.746 207.349 488.519C208.053 487.292 208.406 485.542 208.406 483.269C208.406 481.758 208.244 480.471 207.92 479.408C207.602 478.346 207.141 477.536 206.539 476.979C205.942 476.422 205.224 476.144 204.383 476.144C203.121 476.144 202.136 476.766 201.425 478.01C200.715 479.249 200.36 481.002 200.36 483.269C200.36 484.78 200.519 486.064 200.837 487.121C201.156 488.178 201.613 488.982 202.21 489.533C202.812 490.084 203.536 490.36 204.383 490.36Z" fill="black"/>
<path d="M293.807 491.996V490.462L299.568 484.155C300.244 483.417 300.801 482.775 301.239 482.229C301.676 481.678 302 481.161 302.21 480.678C302.426 480.189 302.534 479.678 302.534 479.144C302.534 478.53 302.386 477.999 302.091 477.55C301.801 477.101 301.403 476.755 300.898 476.51C300.392 476.266 299.824 476.144 299.193 476.144C298.523 476.144 297.938 476.283 297.438 476.562C296.943 476.834 296.56 477.218 296.287 477.712C296.02 478.206 295.886 478.786 295.886 479.451H293.875C293.875 478.428 294.111 477.53 294.582 476.758C295.054 475.985 295.696 475.383 296.509 474.951C297.327 474.519 298.244 474.303 299.261 474.303C300.284 474.303 301.19 474.519 301.98 474.951C302.77 475.383 303.389 475.965 303.838 476.698C304.287 477.431 304.511 478.246 304.511 479.144C304.511 479.786 304.395 480.414 304.162 481.027C303.935 481.635 303.537 482.314 302.969 483.064C302.406 483.809 301.625 484.718 300.625 485.792L296.705 489.985V490.121H304.818V491.996H293.807ZM308.884 491.996L316.69 476.553V476.417H307.69V474.542H318.872V476.519L311.099 491.996H308.884Z" fill="black"/>
<path d="M292 458.5C292 456.015 294.015 454 296.5 454H403.5C405.985 454 408 456.015 408 458.5C408 460.985 405.985 463 403.5 463H296.5C294.015 463 292 460.985 292 458.5Z" fill="#F3F3F3"/>
<path d="M302 208.583C302 206.098 304.015 204.083 306.5 204.083H342.5C344.985 204.083 347 206.098 347 208.583C347 211.068 344.985 213.083 342.5 213.083H306.5C304.015 213.083 302 211.068 302 208.583Z" fill="#F3F3F3"/>
<path d="M167 208.583C167 206.098 169.015 204.083 171.5 204.083H287.5C289.985 204.083 292 206.098 292 208.583C292 211.068 289.985 213.083 287.5 213.083H171.5C169.015 213.083 167 211.068 167 208.583Z" fill="#F3F3F3"/>
<path d="M184.08 175.273C184.08 177.136 183.739 178.739 183.057 180.08C182.375 181.415 181.44 182.443 180.253 183.165C179.071 183.881 177.727 184.239 176.222 184.239C174.71 184.239 173.361 183.881 172.173 183.165C170.991 182.443 170.06 181.412 169.378 180.071C168.696 178.73 168.355 177.131 168.355 175.273C168.355 173.409 168.696 171.81 169.378 170.475C170.06 169.134 170.991 168.105 172.173 167.389C173.361 166.668 174.71 166.307 176.222 166.307C177.727 166.307 179.071 166.668 180.253 167.389C181.44 168.105 182.375 169.134 183.057 170.475C183.739 171.81 184.08 173.409 184.08 175.273ZM181.472 175.273C181.472 173.852 181.241 172.656 180.781 171.685C180.327 170.708 179.702 169.969 178.906 169.469C178.116 168.963 177.222 168.71 176.222 168.71C175.216 168.71 174.318 168.963 173.528 169.469C172.739 169.969 172.114 170.708 171.653 171.685C171.199 172.656 170.972 173.852 170.972 175.273C170.972 176.693 171.199 177.892 171.653 178.869C172.114 179.841 172.739 180.58 173.528 181.085C174.318 181.585 175.216 181.835 176.222 181.835C177.222 181.835 178.116 181.585 178.906 181.085C179.702 180.58 180.327 179.841 180.781 178.869C181.241 177.892 181.472 176.693 181.472 175.273ZM198.357 170.909L193.61 184H190.883L186.127 170.909H188.863L192.178 180.983H192.315L195.621 170.909H198.357ZM205.949 184.264C204.659 184.264 203.548 183.989 202.616 183.438C201.69 182.881 200.974 182.1 200.469 181.094C199.969 180.083 199.719 178.898 199.719 177.54C199.719 176.199 199.969 175.017 200.469 173.994C200.974 172.972 201.679 172.173 202.582 171.6C203.491 171.026 204.554 170.739 205.77 170.739C206.509 170.739 207.224 170.861 207.918 171.105C208.611 171.35 209.233 171.733 209.784 172.256C210.335 172.779 210.77 173.458 211.088 174.293C211.406 175.122 211.565 176.131 211.565 177.318V178.222H201.159V176.313H209.068C209.068 175.642 208.932 175.048 208.659 174.531C208.386 174.009 208.003 173.597 207.509 173.296C207.02 172.994 206.446 172.844 205.787 172.844C205.071 172.844 204.446 173.02 203.912 173.372C203.384 173.719 202.974 174.173 202.685 174.736C202.401 175.293 202.259 175.898 202.259 176.551V178.043C202.259 178.918 202.412 179.662 202.719 180.276C203.031 180.889 203.466 181.358 204.023 181.682C204.58 182 205.23 182.159 205.974 182.159C206.457 182.159 206.898 182.091 207.295 181.955C207.693 181.813 208.037 181.602 208.327 181.324C208.616 181.046 208.838 180.702 208.991 180.293L211.403 180.727C211.21 181.438 210.864 182.06 210.364 182.594C209.869 183.122 209.247 183.534 208.497 183.83C207.753 184.119 206.903 184.264 205.949 184.264ZM214.393 184V170.909H216.856V172.989H216.992C217.231 172.284 217.651 171.73 218.254 171.327C218.862 170.918 219.549 170.713 220.316 170.713C220.475 170.713 220.663 170.719 220.879 170.73C221.1 170.742 221.273 170.756 221.398 170.773V173.21C221.296 173.182 221.114 173.151 220.853 173.117C220.592 173.077 220.33 173.057 220.069 173.057C219.467 173.057 218.93 173.185 218.458 173.44C217.992 173.69 217.623 174.04 217.35 174.489C217.077 174.932 216.941 175.438 216.941 176.006V184H214.393ZM235.201 170.909L230.454 184H227.727L222.971 170.909H225.707L229.022 180.983H229.158L232.465 170.909H235.201ZM237.596 184V170.909H240.144V184H237.596ZM238.883 168.889C238.44 168.889 238.059 168.742 237.741 168.446C237.428 168.145 237.272 167.787 237.272 167.372C237.272 166.952 237.428 166.594 237.741 166.298C238.059 165.997 238.44 165.847 238.883 165.847C239.326 165.847 239.704 165.997 240.016 166.298C240.335 166.594 240.494 166.952 240.494 167.372C240.494 167.787 240.335 168.145 240.016 168.446C239.704 168.742 239.326 168.889 238.883 168.889ZM249.214 184.264C247.925 184.264 246.814 183.989 245.882 183.438C244.956 182.881 244.24 182.1 243.734 181.094C243.234 180.083 242.984 178.898 242.984 177.54C242.984 176.199 243.234 175.017 243.734 173.994C244.24 172.972 244.945 172.173 245.848 171.6C246.757 171.026 247.82 170.739 249.036 170.739C249.774 170.739 250.49 170.861 251.183 171.105C251.876 171.35 252.499 171.733 253.05 172.256C253.601 172.779 254.036 173.458 254.354 174.293C254.672 175.122 254.831 176.131 254.831 177.318V178.222H244.425V176.313H252.334C252.334 175.642 252.197 175.048 251.925 174.531C251.652 174.009 251.268 173.597 250.774 173.296C250.286 172.994 249.712 172.844 249.053 172.844C248.337 172.844 247.712 173.02 247.178 173.372C246.649 173.719 246.24 174.173 245.95 174.736C245.666 175.293 245.524 175.898 245.524 176.551V178.043C245.524 178.918 245.678 179.662 245.984 180.276C246.297 180.889 246.732 181.358 247.288 181.682C247.845 182 248.496 182.159 249.24 182.159C249.723 182.159 250.163 182.091 250.561 181.955C250.959 181.813 251.303 181.602 251.592 181.324C251.882 181.046 252.104 180.702 252.257 180.293L254.669 180.727C254.476 181.438 254.129 182.06 253.629 182.594C253.135 183.122 252.513 183.534 251.763 183.83C251.018 184.119 250.169 184.264 249.214 184.264ZM260.473 184L256.621 170.909H259.254L261.82 180.523H261.947L264.521 170.909H267.155L269.712 180.48H269.839L272.388 170.909H275.021L271.178 184H268.578L265.919 174.548H265.723L263.064 184H260.473Z" fill="black"/>
<path d="M176.247 268.298C174.784 268.298 173.491 268.039 172.369 267.521C171.254 266.995 170.384 266.274 169.759 265.358C169.134 264.435 168.825 263.384 168.832 262.205C168.825 261.281 169.006 260.429 169.376 259.648C169.745 258.859 170.249 258.203 170.888 257.677C171.535 257.144 172.256 256.807 173.051 256.665V256.537C172.007 256.267 171.176 255.681 170.558 254.779C169.94 253.87 169.635 252.837 169.642 251.679C169.635 250.571 169.915 249.58 170.484 248.707C171.052 247.833 171.833 247.144 172.827 246.64C173.829 246.136 174.969 245.884 176.247 245.884C177.511 245.884 178.641 246.136 179.635 246.64C180.629 247.144 181.411 247.833 181.979 248.707C182.554 249.58 182.845 250.571 182.852 251.679C182.845 252.837 182.529 253.87 181.904 254.779C181.286 255.681 180.466 256.267 179.443 256.537V256.665C180.232 256.807 180.942 257.144 181.574 257.677C182.206 258.203 182.71 258.859 183.087 259.648C183.463 260.429 183.655 261.281 183.662 262.205C183.655 263.384 183.335 264.435 182.703 265.358C182.078 266.274 181.208 266.995 180.093 267.521C178.985 268.039 177.703 268.298 176.247 268.298ZM176.247 265.955C177.234 265.955 178.087 265.795 178.804 265.475C179.521 265.156 180.075 264.705 180.466 264.122C180.857 263.54 181.055 262.858 181.062 262.077C181.055 261.253 180.842 260.525 180.423 259.893C180.004 259.261 179.433 258.764 178.708 258.401C177.991 258.039 177.17 257.858 176.247 257.858C175.317 257.858 174.486 258.039 173.754 258.401C173.03 258.764 172.458 259.261 172.039 259.893C171.627 260.525 171.425 261.253 171.432 262.077C171.425 262.858 171.613 263.54 171.996 264.122C172.387 264.705 172.945 265.156 173.669 265.475C174.393 265.795 175.253 265.955 176.247 265.955ZM176.247 255.6C177.028 255.6 177.721 255.443 178.325 255.131C178.935 254.818 179.415 254.382 179.763 253.82C180.111 253.259 180.288 252.602 180.295 251.85C180.288 251.111 180.114 250.468 179.773 249.921C179.433 249.367 178.96 248.941 178.357 248.643C177.753 248.337 177.05 248.185 176.247 248.185C175.43 248.185 174.717 248.337 174.106 248.643C173.495 248.941 173.023 249.367 172.689 249.921C172.355 250.468 172.192 251.111 172.199 251.85C172.192 252.602 172.359 253.259 172.7 253.82C173.048 254.382 173.527 254.818 174.138 255.131C174.749 255.443 175.452 255.6 176.247 255.6ZM194.563 268.298C193.313 268.298 192.187 268.05 191.186 267.553C190.184 267.056 189.382 266.374 188.778 265.507C188.175 264.641 187.844 263.654 187.787 262.546H190.344C190.444 263.533 190.891 264.35 191.687 264.996C192.489 265.635 193.448 265.955 194.563 265.955C195.458 265.955 196.253 265.745 196.949 265.326C197.653 264.907 198.203 264.332 198.601 263.6C199.006 262.862 199.208 262.027 199.208 261.097C199.208 260.145 198.998 259.296 198.579 258.551C198.167 257.798 197.599 257.205 196.875 256.771C196.15 256.338 195.323 256.118 194.393 256.111C193.725 256.104 193.04 256.207 192.336 256.42C191.633 256.626 191.055 256.892 190.6 257.219L188.128 256.921L189.449 246.182H200.785V248.526H191.665L190.898 254.96H191.026C191.474 254.605 192.035 254.31 192.709 254.076C193.384 253.842 194.087 253.725 194.819 253.725C196.154 253.725 197.344 254.044 198.388 254.683C199.439 255.315 200.263 256.182 200.859 257.283C201.463 258.384 201.765 259.641 201.765 261.054C201.765 262.446 201.452 263.689 200.827 264.783C200.209 265.869 199.357 266.729 198.27 267.361C197.184 267.986 195.948 268.298 194.563 268.298ZM205.485 263.526V261.352L215.074 246.182H216.65V249.548H215.585L208.341 261.011V261.182H221.252V263.526H205.485ZM215.755 268V262.865V261.853V246.182H218.27V268H215.755ZM226.094 268.171C225.569 268.171 225.118 267.982 224.741 267.606C224.365 267.23 224.177 266.779 224.177 266.253C224.177 265.727 224.365 265.276 224.741 264.9C225.118 264.524 225.569 264.335 226.094 264.335C226.62 264.335 227.071 264.524 227.447 264.9C227.824 265.276 228.012 265.727 228.012 266.253C228.012 266.601 227.923 266.921 227.746 267.212C227.575 267.503 227.344 267.737 227.053 267.915C226.769 268.085 226.45 268.171 226.094 268.171ZM238.836 268.298C237.231 268.298 235.864 267.862 234.734 266.988C233.605 266.107 232.742 264.833 232.146 263.163C231.549 261.487 231.251 259.463 231.251 257.091C231.251 254.733 231.549 252.72 232.146 251.051C232.749 249.374 233.616 248.096 234.745 247.215C235.881 246.328 237.245 245.884 238.836 245.884C240.427 245.884 241.787 246.328 242.916 247.215C244.053 248.096 244.919 249.374 245.516 251.051C246.119 252.72 246.421 254.733 246.421 257.091C246.421 259.463 246.123 261.487 245.526 263.163C244.93 264.833 244.067 266.107 242.938 266.988C241.808 267.862 240.441 268.298 238.836 268.298ZM238.836 265.955C240.427 265.955 241.663 265.188 242.543 263.654C243.424 262.119 243.864 259.932 243.864 257.091C243.864 255.202 243.662 253.593 243.257 252.265C242.859 250.937 242.284 249.925 241.531 249.229C240.786 248.533 239.887 248.185 238.836 248.185C237.259 248.185 236.027 248.962 235.139 250.518C234.251 252.066 233.808 254.257 233.808 257.091C233.808 258.98 234.006 260.585 234.404 261.906C234.802 263.227 235.374 264.232 236.119 264.921C236.872 265.61 237.778 265.955 238.836 265.955ZM257.586 268.298C255.981 268.298 254.614 267.862 253.484 266.988C252.355 266.107 251.492 264.833 250.896 263.163C250.299 261.487 250.001 259.463 250.001 257.091C250.001 254.733 250.299 252.72 250.896 251.051C251.499 249.374 252.366 248.096 253.495 247.215C254.631 246.328 255.995 245.884 257.586 245.884C259.177 245.884 260.537 246.328 261.666 247.215C262.803 248.096 263.669 249.374 264.266 251.051C264.869 252.72 265.171 254.733 265.171 257.091C265.171 259.463 264.873 261.487 264.276 263.163C263.68 264.833 262.817 266.107 261.688 266.988C260.558 267.862 259.191 268.298 257.586 268.298ZM257.586 265.955C259.177 265.955 260.413 265.188 261.293 263.654C262.174 262.119 262.614 259.932 262.614 257.091C262.614 255.202 262.412 253.593 262.007 252.265C261.609 250.937 261.034 249.925 260.281 249.229C259.536 248.533 258.637 248.185 257.586 248.185C256.009 248.185 254.777 248.962 253.889 250.518C253.001 252.066 252.558 254.257 252.558 257.091C252.558 258.98 252.756 260.585 253.154 261.906C253.552 263.227 254.124 264.232 254.869 264.921C255.622 265.61 256.528 265.955 257.586 265.955ZM276.336 268.298C274.731 268.298 273.364 267.862 272.234 266.988C271.105 266.107 270.242 264.833 269.646 263.163C269.049 261.487 268.751 259.463 268.751 257.091C268.751 254.733 269.049 252.72 269.646 251.051C270.249 249.374 271.116 248.096 272.245 247.215C273.381 246.328 274.745 245.884 276.336 245.884C277.927 245.884 279.287 246.328 280.416 247.215C281.553 248.096 282.419 249.374 283.016 251.051C283.619 252.72 283.921 254.733 283.921 257.091C283.921 259.463 283.623 261.487 283.026 263.163C282.43 264.833 281.567 266.107 280.438 266.988C279.308 267.862 277.941 268.298 276.336 268.298ZM276.336 265.955C277.927 265.955 279.163 265.188 280.043 263.654C280.924 262.119 281.364 259.932 281.364 257.091C281.364 255.202 281.162 253.593 280.757 252.265C280.359 250.937 279.784 249.925 279.031 249.229C278.286 248.533 277.387 248.185 276.336 248.185C274.759 248.185 273.527 248.962 272.639 250.518C271.751 252.066 271.308 254.257 271.308 257.091C271.308 258.98 271.506 260.585 271.904 261.906C272.302 263.227 272.874 264.232 273.619 264.921C274.372 265.61 275.278 265.955 276.336 265.955ZM290.356 262.034L290.313 258.923H290.825L297.984 251.636H301.094L293.467 259.35H293.254L290.356 262.034ZM288.012 268V246.182H290.526V268H288.012ZM298.41 268L292.018 259.904L293.808 258.156L301.606 268H298.41Z" fill="black"/>
<path d="M168.773 141.614V140.364H177.5V141.614H173.841V152H172.432V141.614H168.773ZM181.773 152.182C180.985 152.182 180.294 151.994 179.699 151.619C179.108 151.244 178.646 150.72 178.312 150.045C177.983 149.371 177.818 148.583 177.818 147.682C177.818 146.773 177.983 145.979 178.312 145.301C178.646 144.623 179.108 144.097 179.699 143.722C180.294 143.347 180.985 143.159 181.773 143.159C182.561 143.159 183.25 143.347 183.841 143.722C184.436 144.097 184.898 144.623 185.227 145.301C185.561 145.979 185.727 146.773 185.727 147.682C185.727 148.583 185.561 149.371 185.227 150.045C184.898 150.72 184.436 151.244 183.841 151.619C183.25 151.994 182.561 152.182 181.773 152.182ZM181.773 150.977C182.371 150.977 182.864 150.824 183.25 150.517C183.636 150.21 183.922 149.807 184.108 149.307C184.294 148.807 184.386 148.265 184.386 147.682C184.386 147.098 184.294 146.555 184.108 146.051C183.922 145.547 183.636 145.14 183.25 144.83C182.864 144.519 182.371 144.364 181.773 144.364C181.174 144.364 180.682 144.519 180.295 144.83C179.909 145.14 179.623 145.547 179.438 146.051C179.252 146.555 179.159 147.098 179.159 147.682C179.159 148.265 179.252 148.807 179.438 149.307C179.623 149.807 179.909 150.21 180.295 150.517C180.682 150.824 181.174 150.977 181.773 150.977ZM191.57 143.273V144.409H187.047V143.273H191.57ZM188.365 141.182H189.706V149.5C189.706 149.879 189.761 150.163 189.871 150.352C189.984 150.538 190.128 150.663 190.303 150.727C190.481 150.788 190.668 150.818 190.865 150.818C191.013 150.818 191.134 150.811 191.229 150.795C191.323 150.777 191.399 150.761 191.456 150.75L191.729 151.955C191.638 151.989 191.511 152.023 191.348 152.057C191.185 152.095 190.979 152.114 190.729 152.114C190.35 152.114 189.979 152.032 189.615 151.869C189.255 151.706 188.956 151.458 188.717 151.125C188.482 150.792 188.365 150.371 188.365 149.864V141.182ZM196.155 152.205C195.602 152.205 195.1 152.1 194.649 151.892C194.198 151.68 193.84 151.375 193.575 150.977C193.31 150.576 193.178 150.091 193.178 149.523C193.178 149.023 193.276 148.617 193.473 148.307C193.67 147.992 193.933 147.746 194.263 147.568C194.592 147.39 194.956 147.258 195.354 147.17C195.755 147.08 196.159 147.008 196.564 146.955C197.094 146.886 197.524 146.835 197.854 146.801C198.187 146.763 198.429 146.701 198.581 146.614C198.736 146.527 198.814 146.375 198.814 146.159V146.114C198.814 145.553 198.661 145.117 198.354 144.807C198.051 144.496 197.59 144.341 196.973 144.341C196.333 144.341 195.831 144.481 195.467 144.761C195.104 145.042 194.848 145.341 194.7 145.659L193.428 145.205C193.655 144.674 193.958 144.261 194.337 143.966C194.719 143.667 195.136 143.458 195.587 143.341C196.041 143.22 196.488 143.159 196.928 143.159C197.208 143.159 197.53 143.193 197.893 143.261C198.261 143.326 198.615 143.46 198.956 143.665C199.301 143.869 199.587 144.178 199.814 144.591C200.041 145.004 200.155 145.557 200.155 146.25V152H198.814V150.818H198.746C198.655 151.008 198.503 151.21 198.291 151.426C198.079 151.642 197.797 151.826 197.445 151.977C197.092 152.129 196.662 152.205 196.155 152.205ZM196.359 151C196.89 151 197.337 150.896 197.7 150.688C198.068 150.479 198.344 150.21 198.53 149.881C198.719 149.551 198.814 149.205 198.814 148.841V147.614C198.757 147.682 198.632 147.744 198.439 147.801C198.25 147.854 198.03 147.902 197.78 147.943C197.534 147.981 197.293 148.015 197.058 148.045C196.827 148.072 196.64 148.095 196.496 148.114C196.147 148.159 195.821 148.233 195.518 148.335C195.219 148.434 194.977 148.583 194.791 148.784C194.609 148.981 194.518 149.25 194.518 149.591C194.518 150.057 194.691 150.409 195.036 150.648C195.384 150.883 195.825 151 196.359 151ZM203.943 140.364V152H202.602V140.364H203.943ZM218.717 140.364H220.126V148.068C220.126 148.864 219.939 149.574 219.564 150.199C219.193 150.82 218.668 151.311 217.99 151.67C217.312 152.027 216.517 152.205 215.604 152.205C214.691 152.205 213.895 152.027 213.217 151.67C212.539 151.311 212.013 150.82 211.638 150.199C211.267 149.574 211.081 148.864 211.081 148.068V140.364H212.49V147.955C212.49 148.523 212.615 149.028 212.865 149.472C213.115 149.911 213.471 150.258 213.933 150.511C214.399 150.761 214.956 150.886 215.604 150.886C216.251 150.886 216.808 150.761 217.274 150.511C217.74 150.258 218.096 149.911 218.342 149.472C218.592 149.028 218.717 148.523 218.717 147.955V140.364ZM228.94 145.227L227.736 145.568C227.66 145.367 227.548 145.172 227.401 144.983C227.257 144.79 227.06 144.631 226.81 144.506C226.56 144.381 226.24 144.318 225.849 144.318C225.315 144.318 224.87 144.441 224.514 144.688C224.162 144.93 223.986 145.239 223.986 145.614C223.986 145.947 224.107 146.21 224.349 146.403C224.592 146.597 224.971 146.758 225.486 146.886L226.781 147.205C227.562 147.394 228.143 147.684 228.526 148.074C228.908 148.46 229.099 148.958 229.099 149.568C229.099 150.068 228.955 150.515 228.668 150.909C228.384 151.303 227.986 151.614 227.474 151.841C226.963 152.068 226.368 152.182 225.69 152.182C224.8 152.182 224.063 151.989 223.48 151.602C222.897 151.216 222.527 150.652 222.372 149.909L223.645 149.591C223.766 150.061 223.995 150.413 224.332 150.648C224.673 150.883 225.118 151 225.668 151C226.293 151 226.789 150.867 227.156 150.602C227.527 150.333 227.713 150.011 227.713 149.636C227.713 149.333 227.607 149.08 227.395 148.875C227.183 148.667 226.857 148.511 226.418 148.409L224.963 148.068C224.164 147.879 223.577 147.585 223.202 147.188C222.83 146.786 222.645 146.284 222.645 145.682C222.645 145.189 222.783 144.754 223.06 144.375C223.34 143.996 223.721 143.699 224.202 143.483C224.687 143.267 225.236 143.159 225.849 143.159C226.713 143.159 227.391 143.348 227.884 143.727C228.38 144.106 228.732 144.606 228.94 145.227ZM234.777 152.182C233.936 152.182 233.211 151.996 232.601 151.625C231.995 151.25 231.527 150.727 231.197 150.057C230.872 149.383 230.709 148.598 230.709 147.705C230.709 146.811 230.872 146.023 231.197 145.341C231.527 144.655 231.985 144.121 232.572 143.739C233.163 143.352 233.853 143.159 234.641 143.159C235.095 143.159 235.544 143.235 235.987 143.386C236.43 143.538 236.834 143.784 237.197 144.125C237.561 144.462 237.851 144.909 238.067 145.466C238.283 146.023 238.391 146.708 238.391 147.523V148.091H231.663V146.932H237.027C237.027 146.439 236.929 146 236.732 145.614C236.538 145.227 236.262 144.922 235.902 144.699C235.546 144.475 235.125 144.364 234.641 144.364C234.107 144.364 233.644 144.496 233.254 144.761C232.868 145.023 232.571 145.364 232.362 145.784C232.154 146.205 232.05 146.655 232.05 147.136V147.909C232.05 148.568 232.163 149.127 232.391 149.585C232.622 150.04 232.942 150.386 233.351 150.625C233.76 150.86 234.235 150.977 234.777 150.977C235.129 150.977 235.447 150.928 235.732 150.83C236.019 150.727 236.268 150.576 236.476 150.375C236.684 150.17 236.845 149.917 236.959 149.614L238.254 149.977C238.118 150.417 237.889 150.803 237.567 151.136C237.245 151.466 236.847 151.723 236.374 151.909C235.9 152.091 235.368 152.182 234.777 152.182ZM240.43 152V143.273H241.726V144.591H241.817C241.976 144.159 242.264 143.809 242.68 143.54C243.097 143.271 243.567 143.136 244.089 143.136C244.188 143.136 244.311 143.138 244.459 143.142C244.607 143.146 244.718 143.152 244.794 143.159V144.523C244.749 144.511 244.644 144.494 244.482 144.472C244.322 144.445 244.154 144.432 243.976 144.432C243.552 144.432 243.173 144.521 242.839 144.699C242.51 144.873 242.249 145.116 242.055 145.426C241.866 145.733 241.771 146.083 241.771 146.477V152H240.43ZM252.565 145.227L251.361 145.568C251.285 145.367 251.173 145.172 251.026 144.983C250.882 144.79 250.685 144.631 250.435 144.506C250.185 144.381 249.865 144.318 249.474 144.318C248.94 144.318 248.495 144.441 248.139 144.688C247.787 144.93 247.611 145.239 247.611 145.614C247.611 145.947 247.732 146.21 247.974 146.403C248.217 146.597 248.596 146.758 249.111 146.886L250.406 147.205C251.187 147.394 251.768 147.684 252.151 148.074C252.533 148.46 252.724 148.958 252.724 149.568C252.724 150.068 252.58 150.515 252.293 150.909C252.009 151.303 251.611 151.614 251.099 151.841C250.588 152.068 249.993 152.182 249.315 152.182C248.425 152.182 247.688 151.989 247.105 151.602C246.522 151.216 246.152 150.652 245.997 149.909L247.27 149.591C247.391 150.061 247.62 150.413 247.957 150.648C248.298 150.883 248.743 151 249.293 151C249.918 151 250.414 150.867 250.781 150.602C251.152 150.333 251.338 150.011 251.338 149.636C251.338 149.333 251.232 149.08 251.02 148.875C250.808 148.667 250.482 148.511 250.043 148.409L248.588 148.068C247.789 147.879 247.202 147.585 246.827 147.188C246.455 146.786 246.27 146.284 246.27 145.682C246.27 145.189 246.408 144.754 246.685 144.375C246.965 143.996 247.346 143.699 247.827 143.483C248.312 143.267 248.861 143.159 249.474 143.159C250.338 143.159 251.016 143.348 251.509 143.727C252.005 144.106 252.357 144.606 252.565 145.227Z" fill="#898989"/>
<path d="M171 412.467L200.686 371.546L211.972 384.544L250.3 348.398L295.755 392.593L318.826 371.546L348.415 362.068L370.759 324.951L393.305 318.132L428.886 348.398L493.547 287.162L550 275" stroke="#1668E8" stroke-width="4" stroke-linecap="round" stroke-linejoin="round"/>
<path opacity="0.184314" d="M171 417L200.52 404.399L213.715 409H248.432L267.151 395.432L293.607 404.399L319.258 409L346.904 395.432L387.314 388.91L429.666 404.399L491.005 376.445L549.883 370.627" stroke="#21529F" stroke-width="4" stroke-dasharray="5"/>
<rect x="386" y="171" width="164" height="86" rx="10" fill="#1668E8"/>
<path d="M420.065 223.546V241H417.253L409.028 229.111H408.884V241H405.722V223.546H408.551L416.767 235.443H416.92V223.546H420.065ZM429.17 241.256C427.857 241.256 426.724 240.983 425.769 240.438C424.82 239.886 424.09 239.108 423.579 238.102C423.067 237.091 422.812 235.901 422.812 234.531C422.812 233.185 423.067 232.003 423.579 230.986C424.096 229.963 424.817 229.168 425.744 228.6C426.67 228.026 427.758 227.739 429.008 227.739C429.815 227.739 430.576 227.869 431.292 228.131C432.013 228.386 432.65 228.784 433.201 229.324C433.758 229.864 434.195 230.551 434.513 231.386C434.832 232.216 434.991 233.205 434.991 234.352V235.298H424.261V233.219H432.033C432.028 232.628 431.9 232.102 431.65 231.642C431.4 231.176 431.05 230.81 430.602 230.543C430.158 230.276 429.641 230.142 429.05 230.142C428.42 230.142 427.866 230.296 427.388 230.602C426.911 230.904 426.539 231.301 426.272 231.796C426.011 232.284 425.877 232.821 425.871 233.406V235.222C425.871 235.983 426.011 236.636 426.289 237.182C426.567 237.722 426.957 238.136 427.457 238.426C427.957 238.71 428.542 238.852 429.212 238.852C429.661 238.852 430.067 238.79 430.431 238.665C430.795 238.534 431.11 238.344 431.377 238.094C431.644 237.844 431.846 237.534 431.982 237.165L434.863 237.489C434.681 238.25 434.335 238.915 433.823 239.483C433.317 240.046 432.67 240.483 431.88 240.796C431.09 241.102 430.187 241.256 429.17 241.256ZM440.232 241L436.533 227.909H439.678L441.979 237.114H442.099L444.451 227.909H447.562L449.914 237.063H450.042L452.309 227.909H455.462L451.755 241H448.542L446.087 232.154H445.908L443.454 241H440.232ZM467.963 231.369L465.151 231.676C465.071 231.392 464.932 231.125 464.733 230.875C464.54 230.625 464.278 230.423 463.949 230.27C463.619 230.117 463.216 230.04 462.739 230.04C462.097 230.04 461.557 230.179 461.119 230.458C460.688 230.736 460.474 231.097 460.48 231.54C460.474 231.921 460.614 232.23 460.898 232.469C461.188 232.708 461.665 232.904 462.33 233.057L464.562 233.534C465.801 233.801 466.722 234.225 467.324 234.804C467.932 235.384 468.239 236.142 468.244 237.08C468.239 237.904 467.997 238.631 467.52 239.261C467.048 239.886 466.392 240.375 465.551 240.727C464.71 241.08 463.744 241.256 462.653 241.256C461.051 241.256 459.761 240.921 458.784 240.25C457.807 239.574 457.224 238.634 457.037 237.429L460.045 237.139C460.182 237.73 460.472 238.176 460.915 238.477C461.358 238.779 461.935 238.929 462.645 238.929C463.378 238.929 463.966 238.779 464.409 238.477C464.858 238.176 465.082 237.804 465.082 237.361C465.082 236.986 464.938 236.676 464.648 236.432C464.364 236.188 463.92 236 463.318 235.869L461.085 235.401C459.83 235.139 458.901 234.699 458.298 234.08C457.696 233.455 457.398 232.665 457.403 231.71C457.398 230.904 457.616 230.205 458.06 229.614C458.509 229.017 459.131 228.557 459.926 228.233C460.727 227.904 461.651 227.739 462.696 227.739C464.23 227.739 465.438 228.065 466.318 228.719C467.205 229.372 467.753 230.256 467.963 231.369ZM473.874 223.546V241H470.788V223.546H473.874ZM482.842 241.256C481.529 241.256 480.396 240.983 479.441 240.438C478.492 239.886 477.762 239.108 477.251 238.102C476.739 237.091 476.484 235.901 476.484 234.531C476.484 233.185 476.739 232.003 477.251 230.986C477.768 229.963 478.489 229.168 479.415 228.6C480.342 228.026 481.43 227.739 482.68 227.739C483.487 227.739 484.248 227.869 484.964 228.131C485.685 228.386 486.322 228.784 486.873 229.324C487.43 229.864 487.867 230.551 488.185 231.386C488.504 232.216 488.663 233.205 488.663 234.352V235.298H477.933V233.219H485.705C485.7 232.628 485.572 232.102 485.322 231.642C485.072 231.176 484.722 230.81 484.273 230.543C483.83 230.276 483.313 230.142 482.722 230.142C482.092 230.142 481.538 230.296 481.06 230.602C480.583 230.904 480.211 231.301 479.944 231.796C479.683 232.284 479.549 232.821 479.543 233.406V235.222C479.543 235.983 479.683 236.636 479.961 237.182C480.239 237.722 480.629 238.136 481.129 238.426C481.629 238.71 482.214 238.852 482.884 238.852C483.333 238.852 483.739 238.79 484.103 238.665C484.467 238.534 484.782 238.344 485.049 238.094C485.316 237.844 485.518 237.534 485.654 237.165L488.535 237.489C488.353 238.25 488.006 238.915 487.495 239.483C486.989 240.046 486.342 240.483 485.552 240.796C484.762 241.102 483.859 241.256 482.842 241.256ZM497.81 227.909V230.296H490.284V227.909H497.81ZM492.142 224.773H495.227V237.063C495.227 237.477 495.29 237.796 495.415 238.017C495.545 238.233 495.716 238.381 495.926 238.46C496.136 238.54 496.369 238.58 496.625 238.58C496.818 238.58 496.994 238.565 497.153 238.537C497.318 238.509 497.443 238.483 497.528 238.46L498.048 240.872C497.884 240.929 497.648 240.992 497.341 241.06C497.04 241.128 496.67 241.168 496.233 241.179C495.46 241.202 494.764 241.085 494.145 240.83C493.526 240.568 493.034 240.165 492.67 239.619C492.313 239.074 492.136 238.392 492.142 237.574V224.773ZM506.927 227.909V230.296H499.401V227.909H506.927ZM501.259 224.773H504.344V237.063C504.344 237.477 504.407 237.796 504.532 238.017C504.663 238.233 504.833 238.381 505.043 238.46C505.254 238.54 505.487 238.58 505.742 238.58C505.935 238.58 506.112 238.565 506.271 238.537C506.435 238.509 506.56 238.483 506.646 238.46L507.165 240.872C507.001 240.929 506.765 240.992 506.458 241.06C506.157 241.128 505.788 241.168 505.35 241.179C504.577 241.202 503.881 241.085 503.262 240.83C502.643 240.568 502.151 240.165 501.788 239.619C501.43 239.074 501.254 238.392 501.259 237.574V224.773ZM515.162 241.256C513.849 241.256 512.716 240.983 511.761 240.438C510.813 239.886 510.082 239.108 509.571 238.102C509.06 237.091 508.804 235.901 508.804 234.531C508.804 233.185 509.06 232.003 509.571 230.986C510.088 229.963 510.81 229.168 511.736 228.6C512.662 228.026 513.75 227.739 515 227.739C515.807 227.739 516.568 227.869 517.284 228.131C518.006 228.386 518.642 228.784 519.193 229.324C519.75 229.864 520.188 230.551 520.506 231.386C520.824 232.216 520.983 233.205 520.983 234.352V235.298H510.253V233.219H518.026C518.02 232.628 517.892 232.102 517.642 231.642C517.392 231.176 517.043 230.81 516.594 230.543C516.151 230.276 515.634 230.142 515.043 230.142C514.412 230.142 513.858 230.296 513.381 230.602C512.903 230.904 512.531 231.301 512.264 231.796C512.003 232.284 511.869 232.821 511.864 233.406V235.222C511.864 235.983 512.003 236.636 512.281 237.182C512.56 237.722 512.949 238.136 513.449 238.426C513.949 238.71 514.534 238.852 515.205 238.852C515.653 238.852 516.06 238.79 516.423 238.665C516.787 238.534 517.102 238.344 517.369 238.094C517.636 237.844 517.838 237.534 517.974 237.165L520.855 237.489C520.673 238.25 520.327 238.915 519.815 239.483C519.31 240.046 518.662 240.483 517.872 240.796C517.082 241.102 516.179 241.256 515.162 241.256ZM523.593 241V227.909H526.585V230.091H526.721C526.96 229.335 527.369 228.753 527.948 228.344C528.533 227.929 529.201 227.722 529.951 227.722C530.121 227.722 530.312 227.73 530.522 227.747C530.738 227.759 530.917 227.779 531.059 227.807V230.645C530.928 230.6 530.721 230.56 530.437 230.526C530.158 230.486 529.888 230.466 529.627 230.466C529.065 230.466 528.559 230.588 528.11 230.833C527.667 231.071 527.317 231.404 527.062 231.83C526.806 232.256 526.678 232.747 526.678 233.304V241H523.593Z" fill="white"/>
<path d="M436.932 214.159C436.152 214.159 435.462 214.021 434.864 213.744C434.269 213.464 433.805 213.08 433.472 212.591C433.138 212.099 432.973 211.538 432.977 210.909C432.973 210.417 433.07 209.962 433.267 209.546C433.464 209.125 433.733 208.775 434.074 208.494C434.419 208.21 434.803 208.03 435.227 207.955V207.886C434.67 207.743 434.227 207.43 433.898 206.949C433.568 206.464 433.405 205.913 433.409 205.296C433.405 204.705 433.555 204.176 433.858 203.71C434.161 203.244 434.578 202.877 435.108 202.608C435.642 202.339 436.25 202.205 436.932 202.205C437.606 202.205 438.208 202.339 438.739 202.608C439.269 202.877 439.686 203.244 439.989 203.71C440.295 204.176 440.451 204.705 440.455 205.296C440.451 205.913 440.282 206.464 439.949 206.949C439.619 207.43 439.182 207.743 438.636 207.886V207.955C439.057 208.03 439.436 208.21 439.773 208.494C440.11 208.775 440.379 209.125 440.58 209.546C440.78 209.962 440.883 210.417 440.886 210.909C440.883 211.538 440.712 212.099 440.375 212.591C440.042 213.08 439.578 213.464 438.983 213.744C438.392 214.021 437.708 214.159 436.932 214.159ZM436.932 212.909C437.458 212.909 437.913 212.824 438.295 212.654C438.678 212.483 438.973 212.243 439.182 211.932C439.39 211.621 439.496 211.258 439.5 210.841C439.496 210.402 439.383 210.013 439.159 209.676C438.936 209.339 438.631 209.074 438.244 208.881C437.862 208.688 437.424 208.591 436.932 208.591C436.436 208.591 435.992 208.688 435.602 208.881C435.216 209.074 434.911 209.339 434.688 209.676C434.468 210.013 434.36 210.402 434.364 210.841C434.36 211.258 434.46 211.621 434.665 211.932C434.873 212.243 435.17 212.483 435.557 212.654C435.943 212.824 436.402 212.909 436.932 212.909ZM436.932 207.386C437.348 207.386 437.718 207.303 438.04 207.136C438.366 206.97 438.621 206.737 438.807 206.438C438.992 206.138 439.087 205.788 439.091 205.386C439.087 204.993 438.994 204.65 438.812 204.358C438.631 204.063 438.379 203.835 438.057 203.676C437.735 203.513 437.36 203.432 436.932 203.432C436.496 203.432 436.116 203.513 435.79 203.676C435.464 203.835 435.212 204.063 435.034 204.358C434.856 204.65 434.769 204.993 434.773 205.386C434.769 205.788 434.858 206.138 435.04 206.438C435.225 206.737 435.481 206.97 435.807 207.136C436.133 207.303 436.508 207.386 436.932 207.386ZM446.7 214.159C446.034 214.159 445.433 214.027 444.899 213.761C444.365 213.496 443.937 213.133 443.615 212.671C443.293 212.208 443.117 211.682 443.087 211.091H444.45C444.503 211.618 444.742 212.053 445.166 212.398C445.594 212.739 446.106 212.909 446.7 212.909C447.178 212.909 447.602 212.797 447.973 212.574C448.348 212.351 448.642 212.044 448.854 211.654C449.07 211.26 449.178 210.815 449.178 210.318C449.178 209.811 449.066 209.358 448.842 208.96C448.623 208.559 448.32 208.243 447.933 208.011C447.547 207.78 447.106 207.663 446.609 207.659C446.253 207.655 445.888 207.71 445.513 207.824C445.138 207.934 444.829 208.076 444.587 208.25L443.268 208.091L443.973 202.364H450.018V203.614H445.155L444.746 207.046H444.814C445.053 206.856 445.352 206.699 445.712 206.574C446.071 206.449 446.446 206.386 446.837 206.386C447.549 206.386 448.183 206.557 448.74 206.898C449.301 207.235 449.74 207.697 450.058 208.284C450.38 208.871 450.541 209.542 450.541 210.296C450.541 211.038 450.375 211.701 450.041 212.284C449.712 212.864 449.257 213.322 448.678 213.659C448.098 213.993 447.439 214.159 446.7 214.159ZM452.526 211.614V210.455L457.639 202.364H458.48V204.159H457.912L454.048 210.273V210.364H460.935V211.614H452.526ZM458.003 214V211.261V210.722V202.364H459.344V214H458.003ZM463.517 214.091C463.237 214.091 462.996 213.991 462.795 213.79C462.595 213.589 462.494 213.349 462.494 213.068C462.494 212.788 462.595 212.547 462.795 212.347C462.996 212.146 463.237 212.046 463.517 212.046C463.797 212.046 464.038 212.146 464.239 212.347C464.439 212.547 464.54 212.788 464.54 213.068C464.54 213.254 464.492 213.424 464.398 213.58C464.307 213.735 464.184 213.86 464.028 213.955C463.877 214.046 463.706 214.091 463.517 214.091ZM470.312 214.159C469.456 214.159 468.727 213.926 468.125 213.46C467.523 212.991 467.063 212.311 466.744 211.421C466.426 210.527 466.267 209.447 466.267 208.182C466.267 206.924 466.426 205.851 466.744 204.96C467.066 204.066 467.528 203.385 468.131 202.915C468.737 202.441 469.464 202.205 470.312 202.205C471.161 202.205 471.886 202.441 472.489 202.915C473.095 203.385 473.557 204.066 473.875 204.96C474.197 205.851 474.358 206.924 474.358 208.182C474.358 209.447 474.199 210.527 473.881 211.421C473.562 212.311 473.102 212.991 472.5 213.46C471.898 213.926 471.169 214.159 470.312 214.159ZM470.312 212.909C471.161 212.909 471.82 212.5 472.29 211.682C472.759 210.864 472.994 209.697 472.994 208.182C472.994 207.174 472.886 206.316 472.67 205.608C472.458 204.9 472.152 204.36 471.75 203.989C471.352 203.618 470.873 203.432 470.312 203.432C469.472 203.432 468.814 203.847 468.341 204.676C467.867 205.502 467.631 206.671 467.631 208.182C467.631 209.19 467.737 210.046 467.949 210.75C468.161 211.455 468.466 211.991 468.864 212.358C469.265 212.726 469.748 212.909 470.312 212.909ZM480.312 214.159C479.456 214.159 478.727 213.926 478.125 213.46C477.523 212.991 477.063 212.311 476.744 211.421C476.426 210.527 476.267 209.447 476.267 208.182C476.267 206.924 476.426 205.851 476.744 204.96C477.066 204.066 477.528 203.385 478.131 202.915C478.737 202.441 479.464 202.205 480.312 202.205C481.161 202.205 481.886 202.441 482.489 202.915C483.095 203.385 483.557 204.066 483.875 204.96C484.197 205.851 484.358 206.924 484.358 208.182C484.358 209.447 484.199 210.527 483.881 211.421C483.562 212.311 483.102 212.991 482.5 213.46C481.898 213.926 481.169 214.159 480.312 214.159ZM480.312 212.909C481.161 212.909 481.82 212.5 482.29 211.682C482.759 210.864 482.994 209.697 482.994 208.182C482.994 207.174 482.886 206.316 482.67 205.608C482.458 204.9 482.152 204.36 481.75 203.989C481.352 203.618 480.873 203.432 480.312 203.432C479.472 203.432 478.814 203.847 478.341 204.676C477.867 205.502 477.631 206.671 477.631 208.182C477.631 209.19 477.737 210.046 477.949 210.75C478.161 211.455 478.466 211.991 478.864 212.358C479.265 212.726 479.748 212.909 480.312 212.909ZM490.312 214.159C489.456 214.159 488.727 213.926 488.125 213.46C487.523 212.991 487.063 212.311 486.744 211.421C486.426 210.527 486.267 209.447 486.267 208.182C486.267 206.924 486.426 205.851 486.744 204.96C487.066 204.066 487.528 203.385 488.131 202.915C488.737 202.441 489.464 202.205 490.312 202.205C491.161 202.205 491.886 202.441 492.489 202.915C493.095 203.385 493.557 204.066 493.875 204.96C494.197 205.851 494.358 206.924 494.358 208.182C494.358 209.447 494.199 210.527 493.881 211.421C493.562 212.311 493.102 212.991 492.5 213.46C491.898 213.926 491.169 214.159 490.312 214.159ZM490.312 212.909C491.161 212.909 491.82 212.5 492.29 211.682C492.759 210.864 492.994 209.697 492.994 208.182C492.994 207.174 492.886 206.316 492.67 205.608C492.458 204.9 492.152 204.36 491.75 203.989C491.352 203.618 490.873 203.432 490.312 203.432C489.472 203.432 488.814 203.847 488.341 204.676C487.867 205.502 487.631 206.671 487.631 208.182C487.631 209.19 487.737 210.046 487.949 210.75C488.161 211.455 488.466 211.991 488.864 212.358C489.265 212.726 489.748 212.909 490.312 212.909ZM497.79 210.818L497.767 209.159H498.04L501.858 205.273H503.517L499.449 209.386H499.335L497.79 210.818ZM496.54 214V202.364H497.881V214H496.54ZM502.085 214L498.676 209.682L499.631 208.75L503.79 214H502.085Z" fill="white"/>
<circle cx="469" cy="171" r="17" fill="#1668E8" stroke="white" stroke-width="2"/>
<path fill-rule="evenodd" clip-rule="evenodd" d="M466.649 167.746C466.649 167.534 466.82 167.362 467.032 167.362L472.09 167.362C472.192 167.362 472.289 167.403 472.361 167.475C472.433 167.546 472.474 167.644 472.474 167.746L472.474 172.804C472.474 173.016 472.302 173.187 472.09 173.187C471.879 173.187 471.707 173.016 471.707 172.804L471.707 168.671L465.858 174.52C465.708 174.67 465.465 174.67 465.316 174.52C465.166 174.37 465.166 174.128 465.316 173.978L471.165 168.129L467.032 168.129C466.82 168.129 466.649 167.957 466.649 167.746Z" fill="white"/>
</svg>
