<svg width="714" height="600" viewBox="0 0 714 600" fill="none" xmlns="http://www.w3.org/2000/svg">
<rect width="714" height="600" rx="30" transform="matrix(-1 0 0 1 714 0)" fill="#C7F2AB"/>
<rect x="48" y="46" width="480" height="457" rx="20" fill="white"/>
<path d="M48 65C48 53.9543 56.9543 45 68 45H508C519.046 45 528 53.9543 528 65V89H48V65Z" fill="#1668E8"/>
<circle cx="74" cy="67" r="4" fill="#FF0606"/>
<circle cx="88" cy="67" r="4" fill="#30C1FF"/>
<circle cx="102" cy="67" r="4" fill="#A3DC2F"/>
<rect x="70" y="108" width="72" height="72" rx="14" fill="#F7F7F7"/>
<path fill-rule="evenodd" clip-rule="evenodd" d="M102.41 129H102.462H108.615H108.667C110.777 129 112.432 129 113.762 129.108C115.116 129.219 116.234 129.448 117.247 129.964C118.911 130.812 120.265 132.165 121.113 133.83C121.629 134.842 121.858 135.961 121.968 137.315C122.077 138.645 122.077 140.299 122.077 142.41V142.41V142.461V145.538V145.59V145.59C122.077 147.7 122.077 149.355 121.968 150.685C121.858 152.039 121.629 153.157 121.113 154.17C120.265 155.834 118.911 157.188 117.247 158.036C116.234 158.552 115.116 158.781 113.762 158.891C112.432 159 110.777 159 108.667 159H108.667H108.615H102.462H102.41H102.41H102.41C100.299 159 98.645 159 97.3153 158.891C95.9612 158.781 94.8426 158.552 93.8301 158.036C92.1656 157.188 90.8123 155.834 89.9642 154.17C89.4483 153.157 89.2193 152.039 89.1086 150.685C89 149.355 89 147.7 89 145.59V145.538V142.461V142.41C89 140.299 89 138.645 89.1086 137.315C89.2193 135.961 89.4483 134.842 89.9642 133.83C90.8123 132.165 92.1656 130.812 93.8301 129.964C94.8426 129.448 95.9612 129.219 97.3153 129.108C98.6451 129 100.3 129 102.41 129ZM96.9477 136.886C96.4175 136.532 95.7011 136.676 95.3476 137.206C94.9942 137.736 95.1374 138.453 95.6677 138.806L97.2061 139.832L97.3851 139.951C99.6902 141.488 101.062 142.403 102.543 142.849C104.496 143.438 106.58 143.438 108.534 142.849C110.015 142.403 111.387 141.488 113.692 139.951L113.871 139.832L115.409 138.806C115.94 138.453 116.083 137.736 115.729 137.206C115.376 136.676 114.659 136.532 114.129 136.886L112.591 137.912C110.052 139.604 108.98 140.305 107.868 140.639C106.349 141.097 104.728 141.097 103.208 140.639C102.097 140.305 101.025 139.604 98.4862 137.912L96.9477 136.886Z" fill="#DADADA"/>
<rect x="160" y="114" width="259" height="12" rx="6" fill="#F7F7F7"/>
<rect x="160" y="162" width="245" height="12" rx="6" fill="#F7F7F7"/>
<rect x="160" y="138" width="269" height="12" rx="6" fill="#F7F7F7"/>
<path d="M505 116C506.375 116 507.5 114.875 507.5 113.5C507.5 112.125 506.375 111 505 111C503.625 111 502.5 112.125 502.5 113.5C502.5 114.875 503.625 116 505 116Z" fill="#F0EEEE"/>
<path d="M487.5 116C488.875 116 490 114.875 490 113.5C490 112.125 488.875 111 487.5 111C486.125 111 485 112.125 485 113.5C485 114.875 486.125 116 487.5 116Z" fill="#F0EEEE"/>
<path d="M496.25 116C497.625 116 498.75 114.875 498.75 113.5C498.75 112.125 497.625 111 496.25 111C494.875 111 493.75 112.125 493.75 113.5C493.75 114.875 494.875 116 496.25 116Z" fill="#F0EEEE"/>
<rect x="70" y="201" width="72" height="72" rx="14" fill="#F7F7F7"/>
<path fill-rule="evenodd" clip-rule="evenodd" d="M102.41 222H102.462H108.615H108.667C110.777 222 112.432 222 113.762 222.108C115.116 222.219 116.234 222.448 117.247 222.964C118.911 223.812 120.265 225.165 121.113 226.83C121.629 227.842 121.858 228.961 121.968 230.315C122.077 231.645 122.077 233.299 122.077 235.41V235.41V235.461V238.538V238.59V238.59C122.077 240.7 122.077 242.355 121.968 243.685C121.858 245.039 121.629 246.157 121.113 247.17C120.265 248.834 118.911 250.188 117.247 251.036C116.234 251.552 115.116 251.781 113.762 251.891C112.432 252 110.777 252 108.667 252H108.667H108.615H102.462H102.41H102.41H102.41C100.299 252 98.645 252 97.3153 251.891C95.9612 251.781 94.8426 251.552 93.8301 251.036C92.1656 250.188 90.8123 248.834 89.9642 247.17C89.4483 246.157 89.2193 245.039 89.1086 243.685C89 242.355 89 240.7 89 238.59V238.538V235.461V235.41C89 233.299 89 231.645 89.1086 230.315C89.2193 228.961 89.4483 227.842 89.9642 226.83C90.8123 225.165 92.1656 223.812 93.8301 222.964C94.8426 222.448 95.9612 222.219 97.3153 222.108C98.6451 222 100.3 222 102.41 222ZM96.9477 229.886C96.4175 229.532 95.7011 229.676 95.3476 230.206C94.9942 230.736 95.1374 231.453 95.6677 231.806L97.2061 232.832L97.3851 232.951C99.6902 234.488 101.062 235.403 102.543 235.849C104.496 236.438 106.58 236.438 108.534 235.849C110.015 235.403 111.387 234.488 113.692 232.951L113.871 232.832L115.409 231.806C115.94 231.453 116.083 230.736 115.729 230.206C115.376 229.676 114.659 229.532 114.129 229.886L112.591 230.912C110.052 232.604 108.98 233.305 107.868 233.639C106.349 234.097 104.728 234.097 103.208 233.639C102.097 233.305 101.025 232.604 98.4862 230.912L96.9477 229.886Z" fill="#DADADA"/>
<rect x="160" y="207" width="259" height="12" rx="6" fill="#F7F7F7"/>
<rect x="160" y="255" width="245" height="12" rx="6" fill="#F7F7F7"/>
<rect x="160" y="231" width="269" height="12" rx="6" fill="#F7F7F7"/>
<path d="M505 209C506.375 209 507.5 207.875 507.5 206.5C507.5 205.125 506.375 204 505 204C503.625 204 502.5 205.125 502.5 206.5C502.5 207.875 503.625 209 505 209Z" fill="#F0EEEE"/>
<path d="M487.5 209C488.875 209 490 207.875 490 206.5C490 205.125 488.875 204 487.5 204C486.125 204 485 205.125 485 206.5C485 207.875 486.125 209 487.5 209Z" fill="#F0EEEE"/>
<path d="M496.25 209C497.625 209 498.75 207.875 498.75 206.5C498.75 205.125 497.625 204 496.25 204C494.875 204 493.75 205.125 493.75 206.5C493.75 207.875 494.875 209 496.25 209Z" fill="#F0EEEE"/>
<rect x="70" y="294" width="72" height="72" rx="14" fill="#F7F7F7"/>
<path fill-rule="evenodd" clip-rule="evenodd" d="M102.41 315H102.462H108.615H108.667C110.777 315 112.432 315 113.762 315.109C115.116 315.219 116.234 315.448 117.247 315.964C118.911 316.812 120.265 318.166 121.113 319.83C121.629 320.843 121.858 321.961 121.968 323.315C122.077 324.645 122.077 326.299 122.077 328.41V328.41V328.462V331.538V331.59V331.59C122.077 333.7 122.077 335.355 121.968 336.685C121.858 338.039 121.629 339.157 121.113 340.17C120.265 341.834 118.911 343.188 117.247 344.036C116.234 344.552 115.116 344.781 113.762 344.891C112.432 345 110.777 345 108.667 345H108.667H108.615H102.462H102.41H102.41H102.41C100.299 345 98.645 345 97.3153 344.891C95.9612 344.781 94.8426 344.552 93.8301 344.036C92.1656 343.188 90.8123 341.834 89.9642 340.17C89.4483 339.157 89.2193 338.039 89.1086 336.685C89 335.355 89 333.7 89 331.59V331.538V328.462V328.41C89 326.3 89 324.645 89.1086 323.315C89.2193 321.961 89.4483 320.843 89.9642 319.83C90.8123 318.166 92.1656 316.812 93.8301 315.964C94.8426 315.448 95.9612 315.219 97.3153 315.109C98.6451 315 100.3 315 102.41 315ZM96.9477 322.886C96.4175 322.533 95.7011 322.676 95.3476 323.206C94.9942 323.736 95.1374 324.453 95.6677 324.806L97.2061 325.832L97.3851 325.951C99.6902 327.488 101.062 328.403 102.543 328.849C104.496 329.438 106.58 329.438 108.534 328.849C110.015 328.403 111.387 327.488 113.692 325.951L113.871 325.832L115.409 324.806C115.94 324.453 116.083 323.736 115.729 323.206C115.376 322.676 114.659 322.533 114.129 322.886L112.591 323.912C110.052 325.604 108.98 326.305 107.868 326.64C106.349 327.097 104.728 327.097 103.208 326.64C102.097 326.305 101.025 325.604 98.4862 323.912L96.9477 322.886Z" fill="#DADADA"/>
<rect x="160" y="300" width="259" height="12" rx="6" fill="#F7F7F7"/>
<rect x="160" y="348" width="245" height="12" rx="6" fill="#F7F7F7"/>
<rect x="160" y="324" width="269" height="12" rx="6" fill="#F7F7F7"/>
<path d="M505 308C506.375 308 507.5 306.875 507.5 305.5C507.5 304.125 506.375 303 505 303C503.625 303 502.5 304.125 502.5 305.5C502.5 306.875 503.625 308 505 308Z" fill="#F0EEEE"/>
<path d="M487.5 308C488.875 308 490 306.875 490 305.5C490 304.125 488.875 303 487.5 303C486.125 303 485 304.125 485 305.5C485 306.875 486.125 308 487.5 308Z" fill="#F0EEEE"/>
<path d="M496.25 308C497.625 308 498.75 306.875 498.75 305.5C498.75 304.125 497.625 303 496.25 303C494.875 303 493.75 304.125 493.75 305.5C493.75 306.875 494.875 308 496.25 308Z" fill="#F0EEEE"/>
<rect x="70" y="387" width="72" height="72" rx="14" fill="#F7F7F7"/>
<path fill-rule="evenodd" clip-rule="evenodd" d="M102.41 408H102.462H108.615H108.667C110.777 408 112.432 408 113.762 408.108C115.116 408.219 116.234 408.448 117.247 408.964C118.911 409.812 120.265 411.165 121.113 412.83C121.629 413.842 121.858 414.961 121.968 416.315C122.077 417.645 122.077 419.299 122.077 421.41V421.41V421.461V424.538V424.59V424.59C122.077 426.7 122.077 428.355 121.968 429.685C121.858 431.039 121.629 432.157 121.113 433.17C120.265 434.834 118.911 436.188 117.247 437.036C116.234 437.552 115.116 437.781 113.762 437.891C112.432 438 110.777 438 108.667 438H108.667H108.615H102.462H102.41H102.41H102.41C100.299 438 98.645 438 97.3153 437.891C95.9612 437.781 94.8426 437.552 93.8301 437.036C92.1656 436.188 90.8123 434.834 89.9642 433.17C89.4483 432.157 89.2193 431.039 89.1086 429.685C89 428.355 89 426.7 89 424.59V424.538V421.461V421.41C89 419.299 89 417.645 89.1086 416.315C89.2193 414.961 89.4483 413.842 89.9642 412.83C90.8123 411.165 92.1656 409.812 93.8301 408.964C94.8426 408.448 95.9612 408.219 97.3153 408.108C98.6451 408 100.3 408 102.41 408ZM96.9477 415.886C96.4175 415.532 95.7011 415.676 95.3476 416.206C94.9942 416.736 95.1374 417.453 95.6677 417.806L97.2061 418.832L97.3851 418.951C99.6902 420.488 101.062 421.403 102.543 421.849C104.496 422.438 106.58 422.438 108.534 421.849C110.015 421.403 111.387 420.488 113.692 418.951L113.871 418.832L115.409 417.806C115.94 417.453 116.083 416.736 115.729 416.206C115.376 415.676 114.659 415.532 114.129 415.886L112.591 416.912C110.052 418.604 108.98 419.305 107.868 419.639C106.349 420.097 104.728 420.097 103.208 419.639C102.097 419.305 101.025 418.604 98.4862 416.912L96.9477 415.886Z" fill="#DADADA"/>
<rect x="160" y="393" width="259" height="12" rx="6" fill="#F7F7F7"/>
<rect x="160" y="441" width="245" height="12" rx="6" fill="#F7F7F7"/>
<rect x="160" y="417" width="269" height="12" rx="6" fill="#F7F7F7"/>
<path d="M505 395C506.375 395 507.5 393.875 507.5 392.5C507.5 391.125 506.375 390 505 390C503.625 390 502.5 391.125 502.5 392.5C502.5 393.875 503.625 395 505 395Z" fill="#F0EEEE"/>
<path d="M487.5 395C488.875 395 490 393.875 490 392.5C490 391.125 488.875 390 487.5 390C486.125 390 485 391.125 485 392.5C485 393.875 486.125 395 487.5 395Z" fill="#F0EEEE"/>
<path d="M496.25 395C497.625 395 498.75 393.875 498.75 392.5C498.75 391.125 497.625 390 496.25 390C494.875 390 493.75 391.125 493.75 392.5C493.75 393.875 494.875 395 496.25 395Z" fill="#F0EEEE"/>
<g filter="url(#filter0_d_1_9894)">
<rect x="388" y="278" width="279" height="277" rx="12" fill="white"/>
</g>
<circle cx="18" cy="18" r="18" transform="matrix(-1 0 0 1 433 290)"/>
<path d="M447.801 295.364H449.551V303.614C449.551 304.36 449.403 304.998 449.108 305.528C448.816 306.059 448.405 306.464 447.875 306.744C447.345 307.021 446.723 307.159 446.011 307.159C445.356 307.159 444.767 307.04 444.244 306.801C443.725 306.562 443.314 306.216 443.011 305.761C442.712 305.303 442.562 304.746 442.562 304.091H444.307C444.307 304.413 444.381 304.691 444.528 304.926C444.68 305.161 444.886 305.345 445.148 305.477C445.413 305.606 445.716 305.67 446.057 305.67C446.428 305.67 446.742 305.593 447 305.438C447.261 305.278 447.46 305.045 447.597 304.739C447.733 304.432 447.801 304.057 447.801 303.614V295.364ZM455.646 307.176C454.828 307.176 454.114 306.989 453.504 306.614C452.894 306.239 452.421 305.714 452.084 305.04C451.747 304.366 451.578 303.578 451.578 302.676C451.578 301.771 451.747 300.979 452.084 300.301C452.421 299.623 452.894 299.097 453.504 298.722C454.114 298.347 454.828 298.159 455.646 298.159C456.464 298.159 457.179 298.347 457.788 298.722C458.398 299.097 458.872 299.623 459.209 300.301C459.546 300.979 459.714 301.771 459.714 302.676C459.714 303.578 459.546 304.366 459.209 305.04C458.872 305.714 458.398 306.239 457.788 306.614C457.179 306.989 456.464 307.176 455.646 307.176ZM455.652 305.75C456.182 305.75 456.622 305.61 456.97 305.33C457.319 305.049 457.576 304.676 457.743 304.21C457.913 303.744 457.999 303.231 457.999 302.67C457.999 302.114 457.913 301.602 457.743 301.136C457.576 300.667 457.319 300.29 456.97 300.006C456.622 299.722 456.182 299.58 455.652 299.58C455.118 299.58 454.675 299.722 454.322 300.006C453.974 300.29 453.714 300.667 453.544 301.136C453.377 301.602 453.294 302.114 453.294 302.67C453.294 303.231 453.377 303.744 453.544 304.21C453.714 304.676 453.974 305.049 454.322 305.33C454.675 305.61 455.118 305.75 455.652 305.75ZM463.31 301.818V307H461.611V295.364H463.287V299.693H463.395C463.599 299.223 463.912 298.85 464.332 298.574C464.753 298.297 465.302 298.159 465.98 298.159C466.579 298.159 467.101 298.282 467.548 298.528C467.999 298.775 468.348 299.142 468.594 299.631C468.844 300.116 468.969 300.722 468.969 301.449V307H467.27V301.653C467.27 301.013 467.105 300.517 466.776 300.165C466.446 299.809 465.988 299.631 465.401 299.631C464.999 299.631 464.639 299.716 464.321 299.886C464.007 300.057 463.759 300.307 463.577 300.636C463.399 300.962 463.31 301.356 463.31 301.818ZM472.935 301.818V307H471.236V298.273H472.866V299.693H472.974C473.175 299.231 473.49 298.86 473.918 298.58C474.349 298.299 474.893 298.159 475.548 298.159C476.143 298.159 476.664 298.284 477.111 298.534C477.558 298.78 477.904 299.148 478.151 299.636C478.397 300.125 478.52 300.729 478.52 301.449V307H476.821V301.653C476.821 301.021 476.656 300.527 476.327 300.17C475.997 299.811 475.545 299.631 474.969 299.631C474.575 299.631 474.224 299.716 473.918 299.886C473.615 300.057 473.374 300.307 473.196 300.636C473.022 300.962 472.935 301.356 472.935 301.818ZM489.692 295.364H491.442V303.614C491.442 304.36 491.294 304.998 490.999 305.528C490.707 306.059 490.296 306.464 489.766 306.744C489.235 307.021 488.614 307.159 487.902 307.159C487.247 307.159 486.658 307.04 486.135 306.801C485.616 306.562 485.205 306.216 484.902 305.761C484.603 305.303 484.453 304.746 484.453 304.091H486.197C486.197 304.413 486.271 304.691 486.419 304.926C486.571 305.161 486.777 305.345 487.038 305.477C487.304 305.606 487.607 305.67 487.947 305.67C488.319 305.67 488.633 305.593 488.891 305.438C489.152 305.278 489.351 305.045 489.487 304.739C489.624 304.432 489.692 304.057 489.692 303.614V295.364ZM497.537 307.176C496.719 307.176 496.005 306.989 495.395 306.614C494.785 306.239 494.312 305.714 493.974 305.04C493.637 304.366 493.469 303.578 493.469 302.676C493.469 301.771 493.637 300.979 493.974 300.301C494.312 299.623 494.785 299.097 495.395 298.722C496.005 298.347 496.719 298.159 497.537 298.159C498.355 298.159 499.069 298.347 499.679 298.722C500.289 299.097 500.762 299.623 501.099 300.301C501.437 300.979 501.605 301.771 501.605 302.676C501.605 303.578 501.437 304.366 501.099 305.04C500.762 305.714 500.289 306.239 499.679 306.614C499.069 306.989 498.355 307.176 497.537 307.176ZM497.543 305.75C498.073 305.75 498.512 305.61 498.861 305.33C499.209 305.049 499.467 304.676 499.634 304.21C499.804 303.744 499.889 303.231 499.889 302.67C499.889 302.114 499.804 301.602 499.634 301.136C499.467 300.667 499.209 300.29 498.861 300.006C498.512 299.722 498.073 299.58 497.543 299.58C497.009 299.58 496.565 299.722 496.213 300.006C495.865 300.29 495.605 300.667 495.435 301.136C495.268 301.602 495.185 302.114 495.185 302.67C495.185 303.231 495.268 303.744 495.435 304.21C495.605 304.676 495.865 305.049 496.213 305.33C496.565 305.61 497.009 305.75 497.543 305.75ZM510.041 300.403L508.501 300.676C508.437 300.479 508.335 300.292 508.195 300.114C508.058 299.936 507.873 299.79 507.638 299.676C507.403 299.562 507.109 299.506 506.757 299.506C506.276 299.506 505.875 299.614 505.553 299.83C505.231 300.042 505.07 300.316 505.07 300.653C505.07 300.945 505.178 301.18 505.393 301.358C505.609 301.536 505.958 301.682 506.439 301.795L507.825 302.114C508.628 302.299 509.227 302.585 509.621 302.972C510.015 303.358 510.212 303.86 510.212 304.477C510.212 305 510.06 305.466 509.757 305.875C509.458 306.28 509.039 306.598 508.501 306.83C507.967 307.061 507.348 307.176 506.643 307.176C505.666 307.176 504.869 306.968 504.251 306.551C503.634 306.131 503.255 305.534 503.115 304.761L504.757 304.511C504.859 304.939 505.07 305.263 505.388 305.483C505.706 305.699 506.121 305.807 506.632 305.807C507.189 305.807 507.634 305.691 507.967 305.46C508.301 305.225 508.467 304.939 508.467 304.602C508.467 304.33 508.365 304.1 508.161 303.915C507.96 303.729 507.651 303.589 507.234 303.494L505.757 303.17C504.943 302.985 504.34 302.689 503.95 302.284C503.564 301.879 503.371 301.366 503.371 300.744C503.371 300.229 503.515 299.778 503.803 299.392C504.09 299.006 504.488 298.705 504.996 298.489C505.503 298.269 506.085 298.159 506.74 298.159C507.683 298.159 508.426 298.364 508.967 298.773C509.509 299.178 509.867 299.722 510.041 300.403Z" fill="black"/>
<path d="M445.966 323.534C445.386 323.534 444.874 323.455 444.429 323.295C443.984 323.138 443.61 322.906 443.307 322.599C443.004 322.293 442.775 321.917 442.619 321.472C442.464 321.027 442.386 320.517 442.386 319.943C442.386 319.388 442.465 318.892 442.622 318.455C442.781 318.017 443.011 317.646 443.312 317.341C443.616 317.034 443.983 316.8 444.415 316.639C444.848 316.478 445.339 316.398 445.886 316.398C446.419 316.398 446.884 316.485 447.284 316.659C447.686 316.831 448.021 317.065 448.29 317.361C448.561 317.654 448.763 317.985 448.898 318.352C449.034 318.72 449.102 319.098 449.102 319.489C449.102 319.763 449.089 320.042 449.062 320.324C449.036 320.606 448.98 320.866 448.895 321.102C448.81 321.337 448.678 321.527 448.5 321.67C448.324 321.814 448.085 321.886 447.784 321.886C447.652 321.886 447.506 321.866 447.347 321.824C447.188 321.782 447.046 321.713 446.923 321.616C446.8 321.52 446.727 321.39 446.705 321.227H446.67C446.625 321.337 446.555 321.441 446.46 321.54C446.367 321.638 446.245 321.717 446.094 321.776C445.944 321.834 445.761 321.86 445.545 321.852C445.299 321.843 445.082 321.788 444.895 321.688C444.707 321.585 444.55 321.447 444.423 321.273C444.298 321.097 444.204 320.893 444.139 320.662C444.077 320.429 444.045 320.178 444.045 319.909C444.045 319.653 444.083 319.42 444.159 319.207C444.235 318.995 444.34 318.81 444.474 318.651C444.611 318.491 444.77 318.365 444.952 318.27C445.135 318.173 445.333 318.114 445.545 318.091C445.735 318.072 445.907 318.08 446.062 318.116C446.218 318.151 446.346 318.203 446.446 318.273C446.546 318.341 446.61 318.417 446.636 318.5H446.67V318.182H447.273V320.75C447.273 320.909 447.317 321.049 447.406 321.17C447.495 321.292 447.625 321.352 447.795 321.352C447.989 321.352 448.136 321.286 448.239 321.153C448.343 321.021 448.414 320.816 448.452 320.54C448.491 320.263 448.511 319.909 448.511 319.477C448.511 319.223 448.476 318.973 448.406 318.727C448.338 318.479 448.234 318.247 448.094 318.031C447.955 317.815 447.78 317.625 447.568 317.46C447.356 317.295 447.107 317.167 446.821 317.074C446.537 316.979 446.214 316.932 445.852 316.932C445.407 316.932 445.009 317.001 444.656 317.139C444.306 317.276 444.008 317.475 443.761 317.739C443.517 318 443.33 318.318 443.202 318.693C443.075 319.066 443.011 319.491 443.011 319.966C443.011 320.449 443.075 320.878 443.202 321.253C443.33 321.628 443.52 321.944 443.77 322.202C444.022 322.459 444.333 322.654 444.705 322.787C445.076 322.921 445.504 322.989 445.989 322.989C446.197 322.989 446.402 322.969 446.605 322.929C446.808 322.889 446.987 322.846 447.142 322.798C447.297 322.751 447.409 322.716 447.477 322.693L447.636 323.216C447.519 323.265 447.366 323.314 447.176 323.364C446.989 323.413 446.788 323.454 446.574 323.486C446.362 323.518 446.159 323.534 445.966 323.534ZM445.636 321.273C445.89 321.273 446.096 321.222 446.253 321.119C446.41 321.017 446.525 320.863 446.597 320.656C446.669 320.45 446.705 320.189 446.705 319.875C446.705 319.557 446.665 319.309 446.585 319.131C446.506 318.953 446.388 318.828 446.233 318.756C446.078 318.684 445.886 318.648 445.659 318.648C445.443 318.648 445.259 318.705 445.105 318.818C444.954 318.93 444.837 319.08 444.756 319.267C444.676 319.453 444.636 319.655 444.636 319.875C444.636 320.117 444.669 320.346 444.733 320.56C444.797 320.772 444.902 320.944 445.048 321.077C445.194 321.207 445.39 321.273 445.636 321.273ZM450.106 317.636H450.776V322.318C450.776 322.587 450.73 322.82 450.637 323.017C450.546 323.214 450.408 323.366 450.222 323.474C450.039 323.582 449.807 323.636 449.526 323.636C449.504 323.636 449.481 323.636 449.458 323.636C449.435 323.636 449.413 323.636 449.39 323.636V323.011C449.413 323.011 449.433 323.011 449.452 323.011C449.471 323.011 449.492 323.011 449.515 323.011C449.719 323.011 449.869 322.951 449.964 322.83C450.058 322.71 450.106 322.54 450.106 322.318V317.636ZM450.435 316.909C450.305 316.909 450.192 316.865 450.097 316.776C450.004 316.687 449.958 316.58 449.958 316.455C449.958 316.33 450.004 316.223 450.097 316.134C450.192 316.045 450.305 316 450.435 316C450.566 316 450.678 316.045 450.771 316.134C450.865 316.223 450.913 316.33 450.913 316.455C450.913 316.58 450.865 316.687 450.771 316.776C450.678 316.865 450.566 316.909 450.435 316.909ZM453.777 322.091C453.383 322.091 453.037 321.997 452.74 321.81C452.445 321.622 452.214 321.36 452.047 321.023C451.882 320.686 451.8 320.292 451.8 319.841C451.8 319.386 451.882 318.99 452.047 318.651C452.214 318.312 452.445 318.048 452.74 317.861C453.037 317.673 453.383 317.58 453.777 317.58C454.171 317.58 454.516 317.673 454.811 317.861C455.108 318.048 455.339 318.312 455.504 318.651C455.671 318.99 455.754 319.386 455.754 319.841C455.754 320.292 455.671 320.686 455.504 321.023C455.339 321.36 455.108 321.622 454.811 321.81C454.516 321.997 454.171 322.091 453.777 322.091ZM453.777 321.489C454.076 321.489 454.322 321.412 454.516 321.259C454.709 321.105 454.852 320.903 454.945 320.653C455.037 320.403 455.084 320.133 455.084 319.841C455.084 319.549 455.037 319.277 454.945 319.026C454.852 318.774 454.709 318.57 454.516 318.415C454.322 318.259 454.076 318.182 453.777 318.182C453.478 318.182 453.232 318.259 453.038 318.415C452.845 318.57 452.702 318.774 452.609 319.026C452.517 319.277 452.47 319.549 452.47 319.841C452.47 320.133 452.517 320.403 452.609 320.653C452.702 320.903 452.845 321.105 453.038 321.259C453.232 321.412 453.478 321.489 453.777 321.489ZM457.448 319.375V322H456.778V316.182H457.448V318.318H457.505C457.607 318.093 457.761 317.914 457.965 317.781C458.172 317.647 458.446 317.58 458.789 317.58C459.086 317.58 459.347 317.639 459.57 317.759C459.794 317.876 459.967 318.057 460.09 318.301C460.215 318.544 460.278 318.852 460.278 319.227V322H459.607V319.273C459.607 318.926 459.517 318.658 459.337 318.469C459.159 318.277 458.912 318.182 458.596 318.182C458.376 318.182 458.179 318.228 458.005 318.321C457.833 318.414 457.696 318.549 457.596 318.727C457.497 318.905 457.448 319.121 457.448 319.375ZM462.175 319.375V322H461.504V317.636H462.152V318.318H462.209C462.311 318.097 462.466 317.919 462.675 317.784C462.883 317.648 463.152 317.58 463.482 317.58C463.777 317.58 464.036 317.64 464.257 317.761C464.479 317.881 464.651 318.062 464.774 318.307C464.897 318.549 464.959 318.856 464.959 319.227V322H464.288V319.273C464.288 318.93 464.199 318.663 464.021 318.472C463.843 318.278 463.599 318.182 463.288 318.182C463.074 318.182 462.883 318.228 462.714 318.321C462.548 318.414 462.416 318.549 462.32 318.727C462.223 318.905 462.175 319.121 462.175 319.375ZM466.184 317.636H466.854V322.318C466.854 322.587 466.808 322.82 466.715 323.017C466.624 323.214 466.486 323.366 466.3 323.474C466.117 323.582 465.885 323.636 465.604 323.636C465.582 323.636 465.559 323.636 465.536 323.636C465.513 323.636 465.491 323.636 465.468 323.636V323.011C465.491 323.011 465.512 323.011 465.531 323.011C465.549 323.011 465.57 323.011 465.593 323.011C465.798 323.011 465.947 322.951 466.042 322.83C466.137 322.71 466.184 322.54 466.184 322.318V317.636ZM466.513 316.909C466.383 316.909 466.27 316.865 466.175 316.776C466.083 316.687 466.036 316.58 466.036 316.455C466.036 316.33 466.083 316.223 466.175 316.134C466.27 316.045 466.383 316 466.513 316C466.644 316 466.756 316.045 466.849 316.134C466.943 316.223 466.991 316.33 466.991 316.455C466.991 316.58 466.943 316.687 466.849 316.776C466.756 316.865 466.644 316.909 466.513 316.909ZM469.855 322.091C469.461 322.091 469.116 321.997 468.818 321.81C468.523 321.622 468.292 321.36 468.125 321.023C467.96 320.686 467.878 320.292 467.878 319.841C467.878 319.386 467.96 318.99 468.125 318.651C468.292 318.312 468.523 318.048 468.818 317.861C469.116 317.673 469.461 317.58 469.855 317.58C470.249 317.58 470.594 317.673 470.889 317.861C471.187 318.048 471.418 318.312 471.582 318.651C471.749 318.99 471.832 319.386 471.832 319.841C471.832 320.292 471.749 320.686 471.582 321.023C471.418 321.36 471.187 321.622 470.889 321.81C470.594 321.997 470.249 322.091 469.855 322.091ZM469.855 321.489C470.154 321.489 470.401 321.412 470.594 321.259C470.787 321.105 470.93 320.903 471.023 320.653C471.116 320.403 471.162 320.133 471.162 319.841C471.162 319.549 471.116 319.277 471.023 319.026C470.93 318.774 470.787 318.57 470.594 318.415C470.401 318.259 470.154 318.182 469.855 318.182C469.556 318.182 469.31 318.259 469.116 318.415C468.923 318.57 468.78 318.774 468.688 319.026C468.595 319.277 468.548 319.549 468.548 319.841C468.548 320.133 468.595 320.403 468.688 320.653C468.78 320.903 468.923 321.105 469.116 321.259C469.31 321.412 469.556 321.489 469.855 321.489ZM475.947 318.614L475.344 318.784C475.307 318.684 475.251 318.586 475.177 318.491C475.105 318.395 475.006 318.315 474.881 318.253C474.756 318.19 474.596 318.159 474.401 318.159C474.134 318.159 473.912 318.221 473.734 318.344C473.558 318.465 473.469 318.619 473.469 318.807C473.469 318.973 473.53 319.105 473.651 319.202C473.772 319.298 473.962 319.379 474.219 319.443L474.867 319.602C475.257 319.697 475.548 319.842 475.739 320.037C475.931 320.23 476.026 320.479 476.026 320.784C476.026 321.034 475.954 321.258 475.81 321.455C475.668 321.652 475.469 321.807 475.214 321.92C474.958 322.034 474.661 322.091 474.322 322.091C473.877 322.091 473.508 321.994 473.217 321.801C472.925 321.608 472.74 321.326 472.663 320.955L473.299 320.795C473.36 321.03 473.474 321.206 473.643 321.324C473.813 321.441 474.036 321.5 474.31 321.5C474.623 321.5 474.871 321.434 475.055 321.301C475.24 321.167 475.333 321.006 475.333 320.818C475.333 320.667 475.28 320.54 475.174 320.438C475.068 320.333 474.905 320.256 474.685 320.205L473.958 320.034C473.558 319.939 473.265 319.793 473.077 319.594C472.892 319.393 472.799 319.142 472.799 318.841C472.799 318.595 472.868 318.377 473.006 318.188C473.147 317.998 473.337 317.849 473.577 317.741C473.82 317.634 474.094 317.58 474.401 317.58C474.833 317.58 475.172 317.674 475.418 317.864C475.666 318.053 475.843 318.303 475.947 318.614ZM476.888 320.807V320.227L479.445 316.182H479.865V317.08H479.581L477.649 320.136V320.182H481.092V320.807H476.888ZM479.626 322V320.631V320.361V316.182H480.297V322H479.626ZM483.975 322.08C483.642 322.08 483.342 322.013 483.075 321.881C482.808 321.748 482.594 321.566 482.433 321.335C482.272 321.104 482.183 320.841 482.168 320.545H482.85C482.877 320.809 482.996 321.027 483.208 321.199C483.422 321.369 483.678 321.455 483.975 321.455C484.214 321.455 484.426 321.399 484.612 321.287C484.799 321.175 484.946 321.022 485.052 320.827C485.16 320.63 485.214 320.407 485.214 320.159C485.214 319.905 485.158 319.679 485.046 319.48C484.936 319.279 484.785 319.121 484.592 319.006C484.398 318.89 484.178 318.831 483.93 318.83C483.752 318.828 483.569 318.855 483.381 318.912C483.194 318.967 483.04 319.038 482.918 319.125L482.259 319.045L482.612 316.182H485.634V316.807H483.202L482.998 318.523H483.032C483.151 318.428 483.301 318.349 483.481 318.287C483.661 318.224 483.848 318.193 484.043 318.193C484.399 318.193 484.717 318.278 484.995 318.449C485.275 318.617 485.495 318.848 485.654 319.142C485.815 319.436 485.896 319.771 485.896 320.148C485.896 320.519 485.812 320.85 485.646 321.142C485.481 321.432 485.254 321.661 484.964 321.83C484.674 321.996 484.344 322.08 483.975 322.08ZM488.888 322.08C488.498 322.08 488.153 322.01 487.854 321.872C487.556 321.732 487.324 321.54 487.158 321.295C486.991 321.049 486.909 320.769 486.911 320.455C486.909 320.208 486.957 319.981 487.055 319.773C487.154 319.562 487.288 319.387 487.459 319.247C487.631 319.105 487.823 319.015 488.036 318.977V318.943C487.757 318.871 487.536 318.715 487.371 318.474C487.206 318.232 487.125 317.956 487.126 317.648C487.125 317.352 487.199 317.088 487.351 316.855C487.502 316.622 487.711 316.438 487.976 316.304C488.243 316.17 488.547 316.102 488.888 316.102C489.225 316.102 489.526 316.17 489.791 316.304C490.056 316.438 490.265 316.622 490.416 316.855C490.57 317.088 490.647 317.352 490.649 317.648C490.647 317.956 490.563 318.232 490.396 318.474C490.232 318.715 490.013 318.871 489.74 318.943V318.977C489.95 319.015 490.14 319.105 490.308 319.247C490.477 319.387 490.611 319.562 490.712 319.773C490.812 319.981 490.863 320.208 490.865 320.455C490.863 320.769 490.778 321.049 490.609 321.295C490.443 321.54 490.211 321.732 489.913 321.872C489.618 322.01 489.276 322.08 488.888 322.08ZM488.888 321.455C489.151 321.455 489.378 321.412 489.57 321.327C489.761 321.241 489.909 321.121 490.013 320.966C490.117 320.811 490.17 320.629 490.172 320.42C490.17 320.201 490.113 320.007 490.001 319.838C489.89 319.67 489.737 319.537 489.544 319.44C489.353 319.344 489.134 319.295 488.888 319.295C488.64 319.295 488.418 319.344 488.223 319.44C488.03 319.537 487.877 319.67 487.766 319.838C487.656 320.007 487.602 320.201 487.604 320.42C487.602 320.629 487.652 320.811 487.754 320.966C487.858 321.121 488.007 321.241 488.2 321.327C488.393 321.412 488.623 321.455 488.888 321.455ZM488.888 318.693C489.096 318.693 489.281 318.652 489.442 318.568C489.605 318.485 489.732 318.368 489.825 318.219C489.918 318.069 489.965 317.894 489.967 317.693C489.965 317.496 489.919 317.325 489.828 317.179C489.737 317.031 489.611 316.918 489.45 316.838C489.289 316.757 489.102 316.716 488.888 316.716C488.67 316.716 488.48 316.757 488.317 316.838C488.154 316.918 488.028 317.031 487.939 317.179C487.85 317.325 487.806 317.496 487.808 317.693C487.806 317.894 487.851 318.069 487.942 318.219C488.035 318.368 488.162 318.485 488.325 318.568C488.488 318.652 488.676 318.693 488.888 318.693Z" fill="#979797"/>
<path d="M537.304 294.88V294.216H538.808V300H538.072V294.88H537.304ZM539.867 294.88V294.216H541.371V300H540.635V294.88H539.867ZM542.973 300.048C542.834 300.048 542.717 300 542.621 299.904C542.525 299.808 542.477 299.691 542.477 299.552C542.477 299.413 542.525 299.296 542.621 299.2C542.717 299.104 542.834 299.056 542.973 299.056C543.106 299.056 543.218 299.104 543.309 299.2C543.405 299.296 543.453 299.413 543.453 299.552C543.453 299.691 543.405 299.808 543.309 299.904C543.218 300 543.106 300.048 542.973 300.048ZM542.973 296.624C542.834 296.624 542.717 296.576 542.621 296.48C542.525 296.384 542.477 296.267 542.477 296.128C542.477 295.989 542.525 295.872 542.621 295.776C542.717 295.68 542.834 295.632 542.973 295.632C543.106 295.632 543.218 295.68 543.309 295.776C543.405 295.872 543.453 295.989 543.453 296.128C543.453 296.267 543.405 296.384 543.309 296.48C543.218 296.576 543.106 296.624 542.973 296.624ZM544.148 298.712V298.16L546.956 294.272H547.828V298.08H548.628V298.712H547.828V300H547.108V298.712H544.148ZM547.14 295.032L544.988 298.08H547.14V295.032ZM549.163 294.88V294.216H550.667V300H549.931V294.88H549.163Z" fill="#979797"/>
<circle cx="643" cy="302" r="12" fill="#1668E8"/>
<path d="M638.733 302.01L637.954 304.601C637.461 306.238 639.06 307.7 640.503 306.933L646.494 303.745C647.837 303.031 647.839 300.987 646.496 300.27L640.502 297.069C639.06 296.299 637.459 297.759 637.95 299.397L638.733 302.01ZM638.733 302.01H640.643" stroke="white" stroke-linecap="round"/>
<circle cx="615" cy="302" r="12" fill="#1668E8"/>
<path d="M614.968 304.076L615.039 304.571L615.039 304.571L614.968 304.076ZM614.459 304.076L614.53 303.581H614.53L614.459 304.076ZM614.455 296.876L614.383 296.381L614.455 296.876ZM614.972 296.876L615.044 296.381V296.381L614.972 296.876ZM612.357 301.95L611.862 302.023L612.357 301.95ZM612.357 299.004L612.851 299.077L612.357 299.004ZM617.069 299.014L617.564 298.942L617.069 299.014ZM617.069 301.94L616.574 301.868L617.069 301.94ZM615.025 304.068L614.954 303.573H614.954L615.025 304.068ZM615.027 296.884L614.955 297.379L615.027 296.884ZM614.391 296.885L614.463 297.38L614.391 296.885ZM614.393 304.066L614.322 304.561H614.322L614.393 304.066ZM619.211 301.688C619.211 301.411 618.987 301.188 618.711 301.188C618.435 301.188 618.211 301.411 618.211 301.688H619.211ZM611.211 301.688C611.211 301.411 610.987 301.188 610.711 301.188C610.435 301.188 610.211 301.411 610.211 301.688H611.211ZM614.211 307.143C614.211 307.419 614.435 307.643 614.711 307.643C614.987 307.643 615.211 307.419 615.211 307.143H614.211ZM614.463 297.38L614.527 297.371L614.383 296.381L614.319 296.39L614.463 297.38ZM614.9 297.371L614.955 297.379L615.099 296.389L615.044 296.381L614.9 297.371ZM614.954 303.573L614.897 303.581L615.039 304.571L615.096 304.562L614.954 303.573ZM614.53 303.581L614.464 303.571L614.322 304.561L614.388 304.571L614.53 303.581ZM614.897 303.581C614.775 303.598 614.652 303.598 614.53 303.581L614.388 304.571C614.604 304.602 614.823 304.602 615.039 304.571L614.897 303.581ZM614.527 297.371C614.651 297.353 614.776 297.353 614.9 297.371L615.044 296.381C614.825 296.349 614.602 296.349 614.383 296.381L614.527 297.371ZM612.851 301.877C612.715 300.95 612.715 300.005 612.851 299.077L611.862 298.931C611.711 299.955 611.711 300.999 611.862 302.023L612.851 301.877ZM616.574 299.086C616.709 300.008 616.709 300.947 616.574 301.868L617.564 302.013C617.712 300.995 617.712 299.959 617.564 298.942L616.574 299.086ZM616.574 301.868C616.442 302.778 615.768 303.456 614.954 303.573L615.096 304.562C616.383 304.378 617.372 303.325 617.564 302.013L616.574 301.868ZM617.564 298.942C617.372 297.63 616.385 296.576 615.099 296.389L614.955 297.379C615.768 297.497 616.441 298.177 616.574 299.086L617.564 298.942ZM612.851 299.077C612.985 298.173 613.654 297.498 614.463 297.38L614.319 296.39C613.039 296.577 612.054 297.625 611.862 298.931L612.851 299.077ZM611.862 302.023C612.055 303.33 613.041 304.377 614.322 304.561L614.464 303.571C613.655 303.455 612.984 302.781 612.851 301.877L611.862 302.023ZM618.211 301.688C618.211 303.783 616.617 305.431 614.711 305.431L614.711 306.431C617.224 306.431 619.211 304.279 619.211 301.688H618.211ZM614.711 305.431C612.805 305.431 611.211 303.783 611.211 301.688H610.211C610.211 304.279 612.198 306.431 614.711 306.431L614.711 305.431ZM614.211 305.931V307.143H615.211V305.931H614.211Z" fill="white"/>
<rect x="397" y="343" width="96" height="10" rx="5" fill="#F7F7F7"/>
<circle cx="403" cy="368" r="6" fill="#6EBB2D"/>
<path d="M405.8 366L402.371 370L401 368.4" stroke="white" stroke-linecap="round" stroke-linejoin="round"/>
<rect x="417" y="363" width="145" height="10" rx="5" fill="#F7F7F7"/>
<circle cx="580" cy="368" r="6" fill="#6EBB2D"/>
<path d="M582.8 366L579.371 370L578 368.4" stroke="white" stroke-linecap="round" stroke-linejoin="round"/>
<rect x="594" y="363" width="49" height="10" rx="5" fill="#F7F7F7"/>
<circle cx="403" cy="386" r="6" fill="#6EBB2D"/>
<path d="M405.8 384L402.371 388L401 386.4" stroke="white" stroke-linecap="round" stroke-linejoin="round"/>
<rect x="417" y="381" width="145" height="10" rx="5" fill="#F7F7F7"/>
<circle cx="580" cy="386" r="6" fill="#6EBB2D"/>
<path d="M582.8 384L579.371 388L578 386.4" stroke="white" stroke-linecap="round" stroke-linejoin="round"/>
<rect x="594" y="381" width="61" height="10" rx="5" fill="#F7F7F7"/>
<circle cx="403" cy="404" r="6" fill="#6EBB2D"/>
<path d="M405.8 402L402.371 406L401 404.4" stroke="white" stroke-linecap="round" stroke-linejoin="round"/>
<rect x="417" y="399" width="145" height="10" rx="5" fill="#F7F7F7"/>
<circle cx="580" cy="404" r="6" fill="#6EBB2D"/>
<path d="M582.8 402L579.371 406L578 404.4" stroke="white" stroke-linecap="round" stroke-linejoin="round"/>
<rect x="594" y="399" width="54" height="10" rx="5" fill="#F7F7F7"/>
<rect x="397" y="423" width="120" height="10" rx="5" fill="#F7F7F7"/>
<rect x="397" y="441" width="251" height="10" rx="5" fill="#F7F7F7"/>
<rect x="397" y="459" width="251" height="10" rx="5" fill="#F7F7F7"/>
<rect x="397" y="477" width="201" height="10" rx="5" fill="#F7F7F7"/>
<rect x="399" y="512" width="249" height="34" rx="17" fill="#1668E8"/>
<path d="M505.717 533V525.727H508.445C509.003 525.727 509.472 525.831 509.851 526.04C510.232 526.248 510.52 526.535 510.714 526.899C510.91 527.261 511.009 527.673 511.009 528.135C511.009 528.601 510.91 529.016 510.714 529.378C510.517 529.74 510.227 530.025 509.844 530.234C509.46 530.44 508.988 530.543 508.427 530.543H506.619V529.46H508.249C508.576 529.46 508.844 529.403 509.052 529.289C509.26 529.175 509.414 529.019 509.513 528.82C509.615 528.621 509.666 528.393 509.666 528.135C509.666 527.877 509.615 527.65 509.513 527.453C509.414 527.257 509.259 527.104 509.048 526.995C508.84 526.884 508.571 526.828 508.242 526.828H507.035V533H505.717ZM515.573 530.706V527.545H516.858V533H515.612V532.031H515.555C515.432 532.336 515.229 532.586 514.948 532.78C514.668 532.974 514.324 533.071 513.914 533.071C513.557 533.071 513.241 532.992 512.966 532.833C512.694 532.672 512.481 532.439 512.327 532.134C512.173 531.826 512.096 531.454 512.096 531.018V527.545H513.382V530.82C513.382 531.165 513.476 531.44 513.666 531.643C513.855 531.847 514.104 531.949 514.411 531.949C514.601 531.949 514.784 531.903 514.962 531.81C515.139 531.718 515.285 531.581 515.399 531.398C515.515 531.214 515.573 530.983 515.573 530.706ZM518.237 533V525.727H519.522V528.447H519.576C519.642 528.315 519.735 528.174 519.856 528.025C519.977 527.873 520.14 527.744 520.346 527.638C520.552 527.529 520.815 527.474 521.135 527.474C521.556 527.474 521.936 527.582 522.275 527.798C522.615 528.011 522.885 528.327 523.084 528.746C523.285 529.162 523.386 529.674 523.386 530.28C523.386 530.879 523.288 531.388 523.091 531.807C522.895 532.226 522.627 532.545 522.289 532.766C521.95 532.986 521.567 533.096 521.138 533.096C520.826 533.096 520.566 533.044 520.36 532.94C520.154 532.835 519.989 532.71 519.863 532.563C519.74 532.414 519.644 532.273 519.576 532.141H519.501V533H518.237ZM519.498 530.273C519.498 530.625 519.547 530.934 519.647 531.2C519.748 531.465 519.894 531.672 520.083 531.821C520.275 531.968 520.507 532.041 520.779 532.041C521.064 532.041 521.301 531.965 521.493 531.814C521.685 531.66 521.829 531.451 521.926 531.185C522.026 530.918 522.076 530.614 522.076 530.273C522.076 529.934 522.027 529.634 521.93 529.371C521.833 529.108 521.689 528.902 521.497 528.753C521.305 528.604 521.066 528.529 520.779 528.529C520.505 528.529 520.272 528.601 520.08 528.746C519.888 528.89 519.743 529.093 519.643 529.353C519.546 529.613 519.498 529.92 519.498 530.273ZM525.764 525.727V533H524.479V525.727H525.764ZM527.086 533V527.545H528.372V533H527.086ZM527.733 526.771C527.529 526.771 527.354 526.704 527.207 526.569C527.06 526.432 526.987 526.267 526.987 526.075C526.987 525.881 527.06 525.717 527.207 525.582C527.354 525.444 527.529 525.376 527.733 525.376C527.939 525.376 528.114 525.444 528.258 525.582C528.405 525.717 528.478 525.881 528.478 526.075C528.478 526.267 528.405 526.432 528.258 526.569C528.114 526.704 527.939 526.771 527.733 526.771ZM534.005 528.987L532.833 529.115C532.8 528.997 532.742 528.885 532.659 528.781C532.578 528.677 532.47 528.593 532.332 528.529C532.195 528.465 532.027 528.433 531.828 528.433C531.56 528.433 531.336 528.491 531.153 528.607C530.973 528.723 530.885 528.874 530.887 529.058C530.885 529.217 530.943 529.346 531.061 529.445C531.182 529.545 531.381 529.626 531.657 529.69L532.588 529.889C533.104 530 533.488 530.177 533.738 530.418C533.992 530.66 534.12 530.976 534.122 531.366C534.12 531.71 534.019 532.013 533.82 532.276C533.624 532.536 533.35 532.74 533 532.886C532.649 533.033 532.247 533.107 531.792 533.107C531.125 533.107 530.587 532.967 530.18 532.688C529.773 532.406 529.53 532.014 529.452 531.512L530.706 531.391C530.763 531.638 530.883 531.823 531.068 531.949C531.253 532.074 531.493 532.137 531.789 532.137C532.094 532.137 532.339 532.074 532.524 531.949C532.711 531.823 532.805 531.668 532.805 531.484C532.805 531.327 532.744 531.198 532.623 531.097C532.505 530.995 532.32 530.917 532.069 530.862L531.139 530.667C530.616 530.558 530.229 530.375 529.978 530.116C529.727 529.856 529.603 529.527 529.605 529.129C529.603 528.793 529.694 528.502 529.878 528.256C530.065 528.007 530.325 527.815 530.656 527.68C530.99 527.543 531.375 527.474 531.81 527.474C532.449 527.474 532.952 527.611 533.319 527.883C533.689 528.155 533.917 528.523 534.005 528.987ZM536.468 529.804V533H535.182V525.727H536.439V528.472H536.503C536.631 528.165 536.829 527.922 537.096 527.744C537.366 527.564 537.709 527.474 538.126 527.474C538.505 527.474 538.835 527.554 539.117 527.712C539.398 527.871 539.616 528.103 539.77 528.408C539.926 528.714 540.004 529.087 540.004 529.527V533H538.719V529.726C538.719 529.359 538.624 529.074 538.435 528.87C538.248 528.664 537.985 528.561 537.646 528.561C537.419 528.561 537.216 528.611 537.036 528.71C536.858 528.807 536.718 528.948 536.617 529.133C536.517 529.317 536.468 529.541 536.468 529.804Z" fill="white"/>
<defs>
<filter id="filter0_d_1_9894" x="350" y="256" width="339" height="337" filterUnits="userSpaceOnUse" color-interpolation-filters="sRGB">
<feFlood flood-opacity="0" result="BackgroundImageFix"/>
<feColorMatrix in="SourceAlpha" type="matrix" values="0 0 0 0 0 0 0 0 0 0 0 0 0 0 0 0 0 0 127 0" result="hardAlpha"/>
<feOffset dx="-8" dy="8"/>
<feGaussianBlur stdDeviation="15"/>
<feComposite in2="hardAlpha" operator="out"/>
<feColorMatrix type="matrix" values="0 0 0 0 0 0 0 0 0 0 0 0 0 0 0 0 0 0 0.06 0"/>
<feBlend mode="normal" in2="BackgroundImageFix" result="effect1_dropShadow_1_9894"/>
<feBlend mode="normal" in="SourceGraphic" in2="effect1_dropShadow_1_9894" result="shape"/>
</filter>
</defs>
</svg>
