<svg width="720" height="600" viewBox="0 0 720 600" fill="none" xmlns="http://www.w3.org/2000/svg">
<rect width="714" height="600" rx="30" transform="matrix(-1 0 0 1 714 0)" fill="#C7F2AB"/>
<rect x="117" y="85" width="480" height="431" rx="20" fill="white"/>
<path d="M117 104C117 92.9543 125.954 84 137 84H577C588.046 84 597 92.9543 597 104V128H117V104Z" fill="#1668E8"/>
<circle cx="143" cy="106" r="4" fill="#FF0606"/>
<circle cx="157" cy="106" r="4" fill="#30C1FF"/>
<circle cx="171" cy="106" r="4" fill="#A3DC2F"/>
<rect x="139" y="147" width="72" height="72" rx="14" fill="#F7F7F7"/>
<path d="M158.857 194.291C158.876 190.828 161.408 187.892 164.831 187.365L165.139 187.318C167.879 186.895 170.669 186.91 173.405 187.362L173.713 187.413C177.13 187.977 179.63 190.94 179.611 194.403C179.603 195.9 178.383 197.107 176.886 197.099L161.553 197.016C160.056 197.008 158.849 195.788 158.857 194.291Z" stroke="#DADADA" stroke-width="2.4"/>
<path d="M175.389 175.471C175.371 178.815 172.647 181.51 169.304 181.492C165.961 181.474 163.265 178.749 163.283 175.406C163.301 172.063 166.026 169.368 169.369 169.386C172.712 169.404 175.408 172.128 175.389 175.471Z" stroke="#DADADA" stroke-width="2.4"/>
<path d="M179.685 181.547C183.028 181.565 185.752 178.87 185.77 175.527C185.789 172.184 183.093 169.459 179.75 169.441M183.734 197.135L187.267 197.154C188.764 197.162 189.984 195.955 189.992 194.459C190.011 190.996 187.51 188.033 184.094 187.469C183.889 187.435 183.682 187.417 183.474 187.416C182.921 187.413 182.749 187.412 181.8 187.407" stroke="#DADADA" stroke-width="2.4" stroke-linecap="round"/>
<rect x="229" y="153" width="259" height="12" rx="6" fill="#F7F7F7"/>
<rect x="229" y="201" width="245" height="12" rx="6" fill="#F7F7F7"/>
<rect x="229" y="177" width="269" height="12" rx="6" fill="#F7F7F7"/>
<path d="M574 155C575.375 155 576.5 153.875 576.5 152.5C576.5 151.125 575.375 150 574 150C572.625 150 571.5 151.125 571.5 152.5C571.5 153.875 572.625 155 574 155Z" fill="#F0EEEE"/>
<path d="M556.5 155C557.875 155 559 153.875 559 152.5C559 151.125 557.875 150 556.5 150C555.125 150 554 151.125 554 152.5C554 153.875 555.125 155 556.5 155Z" fill="#F0EEEE"/>
<path d="M565.25 155C566.625 155 567.75 153.875 567.75 152.5C567.75 151.125 566.625 150 565.25 150C563.875 150 562.75 151.125 562.75 152.5C562.75 153.875 563.875 155 565.25 155Z" fill="#F0EEEE"/>
<rect x="139" y="235" width="72" height="72" rx="14" fill="#F7F7F7"/>
<path d="M158.857 282.291C158.876 278.828 161.408 275.892 164.831 275.365L165.139 275.318C167.879 274.895 170.669 274.91 173.405 275.362L173.713 275.413C177.13 275.977 179.63 278.94 179.611 282.403C179.603 283.9 178.383 285.107 176.886 285.099L161.553 285.016C160.056 285.008 158.849 283.788 158.857 282.291Z" stroke="#DADADA" stroke-width="2.4"/>
<path d="M175.389 263.471C175.371 266.815 172.647 269.51 169.304 269.492C165.961 269.474 163.265 266.749 163.283 263.406C163.301 260.063 166.026 257.368 169.369 257.386C172.712 257.404 175.408 260.128 175.389 263.471Z" stroke="#DADADA" stroke-width="2.4"/>
<path d="M179.685 269.547C183.028 269.565 185.752 266.87 185.77 263.527C185.789 260.184 183.093 257.459 179.75 257.441M183.734 285.135L187.267 285.154C188.764 285.162 189.984 283.955 189.992 282.459C190.011 278.996 187.51 276.033 184.094 275.469C183.889 275.435 183.682 275.417 183.474 275.416C182.921 275.413 182.749 275.412 181.8 275.407" stroke="#DADADA" stroke-width="2.4" stroke-linecap="round"/>
<rect x="229" y="241" width="259" height="12" rx="6" fill="#F7F7F7"/>
<rect x="229" y="289" width="245" height="12" rx="6" fill="#F7F7F7"/>
<rect x="229" y="265" width="269" height="12" rx="6" fill="#F7F7F7"/>
<path d="M574 243C575.375 243 576.5 241.875 576.5 240.5C576.5 239.125 575.375 238 574 238C572.625 238 571.5 239.125 571.5 240.5C571.5 241.875 572.625 243 574 243Z" fill="#F0EEEE"/>
<path d="M556.5 243C557.875 243 559 241.875 559 240.5C559 239.125 557.875 238 556.5 238C555.125 238 554 239.125 554 240.5C554 241.875 555.125 243 556.5 243Z" fill="#F0EEEE"/>
<path d="M565.25 243C566.625 243 567.75 241.875 567.75 240.5C567.75 239.125 566.625 238 565.25 238C563.875 238 562.75 239.125 562.75 240.5C562.75 241.875 563.875 243 565.25 243Z" fill="#F0EEEE"/>
<rect x="139" y="323" width="72" height="72" rx="14" fill="#F7F7F7"/>
<path d="M158.857 370.291C158.876 366.828 161.408 363.892 164.831 363.365L165.139 363.318C167.879 362.895 170.669 362.91 173.405 363.362L173.713 363.413C177.13 363.977 179.63 366.94 179.611 370.403C179.603 371.9 178.383 373.107 176.886 373.099L161.553 373.016C160.056 373.008 158.849 371.788 158.857 370.291Z" stroke="#DADADA" stroke-width="2.4"/>
<path d="M175.389 351.471C175.371 354.815 172.647 357.51 169.304 357.492C165.961 357.474 163.265 354.749 163.283 351.406C163.301 348.063 166.026 345.368 169.369 345.386C172.712 345.404 175.408 348.128 175.389 351.471Z" stroke="#DADADA" stroke-width="2.4"/>
<path d="M179.685 357.547C183.028 357.565 185.752 354.87 185.77 351.527C185.789 348.184 183.093 345.459 179.75 345.441M183.734 373.135L187.267 373.154C188.764 373.162 189.984 371.955 189.992 370.459C190.011 366.996 187.51 364.033 184.094 363.469C183.889 363.435 183.682 363.417 183.474 363.416C182.921 363.413 182.749 363.412 181.8 363.407" stroke="#DADADA" stroke-width="2.4" stroke-linecap="round"/>
<rect x="229" y="329" width="259" height="12" rx="6" fill="#F7F7F7"/>
<rect x="229" y="377" width="245" height="12" rx="6" fill="#F7F7F7"/>
<rect x="229" y="353" width="269" height="12" rx="6" fill="#F7F7F7"/>
<path d="M574 331C575.375 331 576.5 329.875 576.5 328.5C576.5 327.125 575.375 326 574 326C572.625 326 571.5 327.125 571.5 328.5C571.5 329.875 572.625 331 574 331Z" fill="#F0EEEE"/>
<path d="M556.5 331C557.875 331 559 329.875 559 328.5C559 327.125 557.875 326 556.5 326C555.125 326 554 327.125 554 328.5C554 329.875 555.125 331 556.5 331Z" fill="#F0EEEE"/>
<path d="M565.25 331C566.625 331 567.75 329.875 567.75 328.5C567.75 327.125 566.625 326 565.25 326C563.875 326 562.75 327.125 562.75 328.5C562.75 329.875 563.875 331 565.25 331Z" fill="#F0EEEE"/>
<rect x="139" y="411" width="72" height="72" rx="14" fill="#F7F7F7"/>
<path d="M158.857 458.291C158.876 454.828 161.408 451.892 164.831 451.365L165.139 451.318C167.879 450.895 170.669 450.91 173.405 451.362L173.713 451.413C177.13 451.977 179.63 454.94 179.611 458.403C179.603 459.9 178.383 461.107 176.886 461.099L161.553 461.016C160.056 461.008 158.849 459.788 158.857 458.291Z" stroke="#DADADA" stroke-width="2.4"/>
<path d="M175.389 439.471C175.371 442.814 172.647 445.51 169.304 445.492C165.961 445.474 163.265 442.749 163.283 439.406C163.301 436.063 166.026 433.368 169.369 433.386C172.712 433.404 175.408 436.128 175.389 439.471Z" stroke="#DADADA" stroke-width="2.4"/>
<path d="M179.685 445.547C183.028 445.565 185.752 442.87 185.77 439.527C185.789 436.184 183.093 433.459 179.75 433.441M183.734 461.135L187.267 461.154C188.764 461.162 189.984 459.955 189.992 458.459C190.011 454.996 187.51 452.033 184.094 451.469C183.889 451.435 183.682 451.417 183.474 451.416C182.921 451.413 182.749 451.412 181.8 451.407" stroke="#DADADA" stroke-width="2.4" stroke-linecap="round"/>
<rect x="229" y="417" width="259" height="12" rx="6" fill="#F7F7F7"/>
<rect x="229" y="465" width="245" height="12" rx="6" fill="#F7F7F7"/>
<rect x="229" y="441" width="269" height="12" rx="6" fill="#F7F7F7"/>
<path d="M574 419C575.375 419 576.5 417.875 576.5 416.5C576.5 415.125 575.375 414 574 414C572.625 414 571.5 415.125 571.5 416.5C571.5 417.875 572.625 419 574 419Z" fill="#F0EEEE"/>
<path d="M556.5 419C557.875 419 559 417.875 559 416.5C559 415.125 557.875 414 556.5 414C555.125 414 554 415.125 554 416.5C554 417.875 555.125 419 556.5 419Z" fill="#F0EEEE"/>
<path d="M565.25 419C566.625 419 567.75 417.875 567.75 416.5C567.75 415.125 566.625 414 565.25 414C563.875 414 562.75 415.125 562.75 416.5C562.75 417.875 563.875 419 565.25 419Z" fill="#F0EEEE"/>
<g filter="url(#filter0_d_1_9999)">
<rect x="498" y="174" width="192" height="72" rx="36" fill="white"/>
</g>
<circle cx="534" cy="210" r="30" fill="#1668E8"/>
<path d="M520.886 218.872C520.901 216.151 522.89 213.844 525.579 213.43L525.822 213.392C527.975 213.061 530.167 213.073 532.317 213.428L532.559 213.467C535.243 213.911 537.207 216.239 537.193 218.96C537.186 220.136 536.228 221.084 535.052 221.077L523.004 221.012C521.828 221.006 520.88 220.048 520.886 218.872Z" stroke="white" stroke-width="2"/>
<path d="M533.876 204.085C533.862 206.711 531.721 208.829 529.094 208.815C526.467 208.801 524.349 206.66 524.364 204.033C524.378 201.407 526.519 199.289 529.145 199.303C531.772 199.317 533.89 201.458 533.876 204.085Z" stroke="white" stroke-width="2"/>
<path d="M537.253 208.859C539.88 208.873 542.021 206.755 542.035 204.128C542.049 201.502 539.931 199.361 537.305 199.347M540.435 221.106L543.211 221.121C544.387 221.127 545.346 220.179 545.352 219.003C545.367 216.283 543.402 213.954 540.718 213.511C540.557 213.484 540.394 213.471 540.231 213.47C539.796 213.467 539.661 213.467 538.915 213.463" stroke="white" stroke-width="2" stroke-linecap="round"/>
<path d="M588.504 192.82H587.162C586.48 192.82 585.842 192.974 585.138 193.392L581.794 195.438V197.814L586.084 195.35V208H588.504V192.82ZM601.519 199.97C602.905 199.486 604.027 198.364 604.027 196.648C604.027 194.14 602.113 192.512 598.967 192.512C595.843 192.512 593.907 194.14 593.907 196.648C593.907 198.342 594.875 199.464 596.217 199.97C594.611 200.476 593.225 201.84 593.225 203.732C593.225 207.054 595.711 208.33 598.813 208.33C601.695 208.33 604.423 207.054 604.423 203.732C604.423 201.84 603.103 200.476 601.519 199.97ZM598.967 194.36C600.639 194.36 601.497 195.394 601.497 196.736C601.497 198.166 600.595 199.178 598.945 199.178C597.295 199.178 596.437 198.166 596.437 196.736C596.437 195.394 597.317 194.36 598.967 194.36ZM598.857 206.482C596.855 206.482 595.821 205.36 595.821 203.754C595.821 202.258 596.789 201.026 598.835 201.026C600.925 201.026 601.805 202.28 601.805 203.754C601.805 205.36 600.881 206.482 598.857 206.482ZM612.026 192.512C607.802 192.512 606.35 195.812 606.35 200.41C606.35 204.964 607.802 208.308 612.026 208.308C616.272 208.308 617.702 204.964 617.702 200.41C617.702 195.812 616.272 192.512 612.026 192.512ZM612.026 206.46C609.87 206.46 608.968 204.304 608.968 200.41C608.968 196.472 609.87 194.36 612.026 194.36C614.204 194.36 615.084 196.472 615.084 200.41C615.084 204.304 614.204 206.46 612.026 206.46ZM625.239 192.512C621.015 192.512 619.563 195.812 619.563 200.41C619.563 204.964 621.015 208.308 625.239 208.308C629.485 208.308 630.915 204.964 630.915 200.41C630.915 195.812 629.485 192.512 625.239 192.512ZM625.239 206.46C623.083 206.46 622.181 204.304 622.181 200.41C622.181 196.472 623.083 194.36 625.239 194.36C627.417 194.36 628.297 196.472 628.297 200.41C628.297 204.304 627.417 206.46 625.239 206.46ZM638.452 192.512C634.228 192.512 632.776 195.812 632.776 200.41C632.776 204.964 634.228 208.308 638.452 208.308C642.698 208.308 644.128 204.964 644.128 200.41C644.128 195.812 642.698 192.512 638.452 192.512ZM638.452 206.46C636.296 206.46 635.394 204.304 635.394 200.41C635.394 196.472 636.296 194.36 638.452 194.36C640.63 194.36 641.51 196.472 641.51 200.41C641.51 204.304 640.63 206.46 638.452 206.46ZM662.84 192.82H659.056L655.052 205.844L651.048 192.82H647.154V208H649.574V200.542C649.574 198.804 649.574 196.758 649.53 195.13C649.948 196.736 650.586 198.804 651.136 200.498L653.6 208H656.394L658.836 200.52C659.408 198.804 660.046 196.714 660.486 195.108C660.442 196.714 660.442 198.804 660.442 200.542V208H662.84V192.82Z" fill="black"/>
<path d="M590.456 221.72H588.788L586.352 229.124L583.904 221.72H582.2V230H583.232V225.74C583.232 224.72 583.232 223.58 583.208 222.68C583.472 223.568 583.856 224.72 584.192 225.704L585.68 230H586.976L588.44 225.728C588.788 224.72 589.172 223.556 589.448 222.656C589.424 223.556 589.424 224.708 589.424 225.74V230H590.456V221.72ZM595.931 230H596.963C596.867 229.292 596.843 228.86 596.843 228.38V225.992C596.843 225.716 596.831 225.404 596.807 225.152C596.699 224.108 596.063 223.472 594.551 223.472C593.147 223.472 592.199 224.252 592.103 225.608H593.183C593.255 224.732 593.687 224.264 594.551 224.264C595.403 224.264 595.739 224.648 595.787 225.236C595.811 225.476 595.811 225.728 595.811 226.004V226.172H595.403C592.907 226.172 591.827 226.916 591.827 228.356C591.827 229.532 592.727 230.168 593.879 230.168C594.491 230.168 595.043 230.072 595.475 229.772L595.823 229.088L595.931 230ZM594.227 229.376C593.447 229.376 592.955 229.04 592.955 228.272C592.955 227.18 594.059 226.808 595.811 226.94V227.588C595.811 228.74 595.187 229.376 594.227 229.376ZM599.174 221.552C598.802 221.552 598.514 221.84 598.514 222.212C598.514 222.584 598.802 222.872 599.174 222.872C599.546 222.872 599.834 222.584 599.834 222.212C599.834 221.84 599.546 221.552 599.174 221.552ZM599.69 230V223.64H598.658V230H599.69ZM602.501 221.18H601.469V228.212C601.469 228.56 601.469 228.836 601.481 229.052C601.517 229.856 601.961 230.048 602.561 230.048C602.801 230.048 603.065 230.036 603.293 230V229.256C602.729 229.316 602.537 229.184 602.513 228.776C602.501 228.572 602.501 228.368 602.501 228.176V221.18ZM608.92 223.472C607.612 223.472 606.724 224.168 606.724 225.332C606.724 226.448 607.636 226.916 608.776 227.228C609.844 227.516 610.276 227.84 610.276 228.452C610.276 229.064 609.724 229.376 609.04 229.376C608.308 229.376 607.72 229.052 607.552 228.128H606.472C606.664 229.568 607.66 230.168 608.968 230.168C610.312 230.168 611.332 229.568 611.332 228.368C611.332 227.288 610.636 226.712 609.172 226.328C608.308 226.1 607.78 225.848 607.78 225.212C607.78 224.66 608.116 224.264 608.836 224.264C609.58 224.264 610.036 224.708 610.18 225.452H611.26C611.128 224.288 610.348 223.472 608.92 223.472ZM617.799 226.64C617.799 224.78 616.827 223.472 615.075 223.472C613.335 223.472 612.051 224.78 612.051 226.844C612.051 229.088 613.287 230.168 614.943 230.168C616.251 230.168 617.463 229.484 617.715 227.948H616.635C616.491 228.86 615.819 229.376 614.991 229.376C614.055 229.376 613.263 228.812 613.167 227.132H617.775C617.799 226.904 617.799 226.736 617.799 226.64ZM615.051 224.264C616.095 224.264 616.659 225.02 616.755 226.34H613.179C613.299 224.984 614.043 224.264 615.051 224.264ZM621.661 223.496C621.361 223.496 621.037 223.604 620.773 223.784L620.197 224.636V223.64H619.165V230H620.197V226.376C620.197 224.924 621.013 224.288 622.093 224.36V223.58C621.973 223.52 621.829 223.496 621.661 223.496ZM628.334 223.64H627.242L625.334 229.244L623.39 223.64H622.25L624.662 230H625.922L628.334 223.64ZM629.806 221.552C629.434 221.552 629.146 221.84 629.146 222.212C629.146 222.584 629.434 222.872 629.806 222.872C630.178 222.872 630.466 222.584 630.466 222.212C630.466 221.84 630.178 221.552 629.806 221.552ZM630.322 230V223.64H629.29V230H630.322ZM634.61 223.472C633.014 223.472 631.622 224.684 631.622 226.832C631.622 229.16 632.846 230.168 634.454 230.168C635.87 230.168 636.926 229.448 637.238 227.972H636.158C635.942 228.896 635.354 229.376 634.514 229.376C633.566 229.376 632.75 228.608 632.75 226.76C632.75 225.044 633.59 224.264 634.586 224.264C635.438 224.264 635.99 224.756 636.218 225.776H637.298C637.106 224.384 636.134 223.472 634.61 223.472ZM643.721 226.64C643.721 224.78 642.749 223.472 640.997 223.472C639.257 223.472 637.973 224.78 637.973 226.844C637.973 229.088 639.209 230.168 640.865 230.168C642.173 230.168 643.385 229.484 643.637 227.948H642.557C642.413 228.86 641.741 229.376 640.913 229.376C639.977 229.376 639.185 228.812 639.089 227.132H643.697C643.721 226.904 643.721 226.736 643.721 226.64ZM640.973 224.264C642.017 224.264 642.581 225.02 642.677 226.34H639.101C639.221 224.984 639.965 224.264 640.973 224.264ZM646.935 223.472C645.627 223.472 644.739 224.168 644.739 225.332C644.739 226.448 645.651 226.916 646.791 227.228C647.859 227.516 648.291 227.84 648.291 228.452C648.291 229.064 647.739 229.376 647.055 229.376C646.323 229.376 645.735 229.052 645.567 228.128H644.487C644.679 229.568 645.675 230.168 646.983 230.168C648.327 230.168 649.347 229.568 649.347 228.368C649.347 227.288 648.651 226.712 647.187 226.328C646.323 226.1 645.795 225.848 645.795 225.212C645.795 224.66 646.131 224.264 646.851 224.264C647.595 224.264 648.051 224.708 648.195 225.452H649.275C649.143 224.288 648.363 223.472 646.935 223.472Z" fill="#707070"/>
<g filter="url(#filter1_d_1_9999)">
<rect x="72" y="471" width="197" height="72" rx="36" fill="white"/>
</g>
<circle cx="108" cy="507" r="30" fill="#1668E8"/>
<path d="M94.8862 515.872C94.9009 513.151 96.8904 510.844 99.5794 510.43L99.8217 510.392C101.975 510.061 104.167 510.073 106.317 510.428L106.559 510.467C109.243 510.911 111.207 513.239 111.193 515.96C111.186 517.136 110.228 518.084 109.052 518.077L97.004 518.012C95.828 518.006 94.8799 517.048 94.8862 515.872Z" stroke="white" stroke-width="2"/>
<path d="M107.876 501.085C107.862 503.711 105.721 505.829 103.094 505.815C100.467 505.801 98.3495 503.66 98.3637 501.033C98.3779 498.407 100.519 496.289 103.145 496.303C105.772 496.317 107.89 498.458 107.876 501.085Z" stroke="white" stroke-width="2"/>
<path d="M111.253 505.859C113.88 505.873 116.021 503.755 116.035 501.128C116.049 498.502 113.931 496.361 111.305 496.347M114.435 518.106L117.211 518.121C118.387 518.127 119.346 517.179 119.352 516.003C119.367 513.283 117.402 510.954 114.718 510.511C114.557 510.484 114.394 510.471 114.231 510.47C113.796 510.467 113.661 510.467 112.915 510.463" stroke="white" stroke-width="2" stroke-linecap="round"/>
<path d="M157.928 503.064L161.272 499.764C163.934 497.168 164.99 495.76 164.99 493.758C164.99 491.36 163.362 489.49 160.15 489.49C156.938 489.49 154.98 491.228 154.672 494.44L154.65 494.66H157.07L157.092 494.44C157.29 492.438 158.148 491.338 159.886 491.338C161.536 491.338 162.372 492.504 162.372 493.978C162.372 495.43 161.536 496.53 159.622 498.422L154.32 503.768V505H164.902V503.064H157.928ZM175.519 496.97C176.905 496.486 178.027 495.364 178.027 493.648C178.027 491.14 176.113 489.512 172.967 489.512C169.843 489.512 167.907 491.14 167.907 493.648C167.907 495.342 168.875 496.464 170.217 496.97C168.611 497.476 167.225 498.84 167.225 500.732C167.225 504.054 169.711 505.33 172.813 505.33C175.695 505.33 178.423 504.054 178.423 500.732C178.423 498.84 177.103 497.476 175.519 496.97ZM172.967 491.36C174.639 491.36 175.497 492.394 175.497 493.736C175.497 495.166 174.595 496.178 172.945 496.178C171.295 496.178 170.437 495.166 170.437 493.736C170.437 492.394 171.317 491.36 172.967 491.36ZM172.857 503.482C170.855 503.482 169.821 502.36 169.821 500.754C169.821 499.258 170.789 498.026 172.835 498.026C174.925 498.026 175.805 499.28 175.805 500.754C175.805 502.36 174.881 503.482 172.857 503.482ZM186.026 489.512C181.802 489.512 180.35 492.812 180.35 497.41C180.35 501.964 181.802 505.308 186.026 505.308C190.272 505.308 191.702 501.964 191.702 497.41C191.702 492.812 190.272 489.512 186.026 489.512ZM186.026 503.46C183.87 503.46 182.968 501.304 182.968 497.41C182.968 493.472 183.87 491.36 186.026 491.36C188.204 491.36 189.084 493.472 189.084 497.41C189.084 501.304 188.204 503.46 186.026 503.46ZM195.081 502.096C194.135 502.096 193.475 502.756 193.475 503.702C193.475 504.626 194.135 505.308 195.081 505.308C196.005 505.308 196.687 504.626 196.687 503.702C196.687 502.756 196.005 502.096 195.081 502.096ZM204.88 494.77C203.78 494.77 202.944 495.012 202.13 495.694L201.316 497.058C201.47 492.944 202.746 491.36 204.638 491.36C206.024 491.36 206.838 492.13 207.19 493.67L207.234 493.89H209.742L209.72 493.67C209.434 491.14 207.608 489.512 204.814 489.512C201.47 489.512 198.764 492.13 198.764 498.026C198.764 503.108 200.766 505.308 204.33 505.308C207.432 505.308 209.896 503.196 209.896 499.83C209.896 496.926 208.114 494.77 204.88 494.77ZM204.33 503.46C202.57 503.46 201.448 502.008 201.448 500.072C201.448 497.806 202.768 496.618 204.308 496.618C206.376 496.618 207.278 498.158 207.278 500.116C207.278 502.074 206.09 503.46 204.33 503.46ZM215.937 500.204L219.897 505H223.043L217.653 498.796L222.977 493.318H220.007L214.903 498.95V488.83H212.483V505H214.903V501.348L215.937 500.204Z" fill="black"/>
<path d="M162.344 519.56V518.72H155.408V519.56H158.36V527H159.392V519.56H162.344ZM165.125 520.472C162.965 520.472 161.969 522.02 161.969 523.82C161.969 525.608 162.965 527.168 165.125 527.168C167.285 527.168 168.281 525.608 168.281 523.82C168.281 522.02 167.285 520.472 165.125 520.472ZM165.125 526.376C163.841 526.376 163.097 525.308 163.097 523.82C163.097 522.32 163.841 521.264 165.125 521.264C166.409 521.264 167.153 522.32 167.153 523.82C167.153 525.308 166.409 526.376 165.125 526.376ZM170.765 521.48H171.953V520.688H170.765V519.212H169.733V520.688H168.881V521.48H169.733V525.188C169.733 525.548 169.733 525.812 169.745 525.98C169.805 526.772 170.213 527.096 171.005 527.096C171.293 527.096 171.581 527.084 171.881 527.036V526.28C171.077 526.376 170.825 526.244 170.777 525.632C170.765 525.464 170.765 525.356 170.765 525.14V521.48ZM176.938 527H177.97C177.874 526.292 177.85 525.86 177.85 525.38V522.992C177.85 522.716 177.838 522.404 177.814 522.152C177.706 521.108 177.07 520.472 175.558 520.472C174.154 520.472 173.206 521.252 173.11 522.608H174.19C174.262 521.732 174.694 521.264 175.558 521.264C176.41 521.264 176.746 521.648 176.794 522.236C176.818 522.476 176.818 522.728 176.818 523.004V523.172H176.41C173.914 523.172 172.834 523.916 172.834 525.356C172.834 526.532 173.734 527.168 174.886 527.168C175.498 527.168 176.05 527.072 176.482 526.772L176.83 526.088L176.938 527ZM175.234 526.376C174.454 526.376 173.962 526.04 173.962 525.272C173.962 524.18 175.066 523.808 176.818 523.94V524.588C176.818 525.74 176.194 526.376 175.234 526.376ZM180.649 518.18H179.617V525.212C179.617 525.56 179.617 525.836 179.629 526.052C179.665 526.856 180.109 527.048 180.709 527.048C180.949 527.048 181.213 527.036 181.441 527V526.256C180.877 526.316 180.685 526.184 180.661 525.776C180.649 525.572 180.649 525.368 180.649 525.176V518.18ZM193.68 522.02C193.536 521.144 192.888 520.472 191.748 520.472C191.184 520.472 190.728 520.58 190.404 520.844L189.84 521.66C189.6 520.964 188.976 520.472 188.004 520.472C187.44 520.472 186.984 520.58 186.66 520.844L186.252 521.564V520.64H185.22V527H186.252V523.856C186.252 521.924 186.84 521.288 187.644 521.288C188.364 521.288 188.82 521.636 188.916 522.356C188.952 522.68 188.964 523.028 188.964 523.592V527H189.996V523.856C189.996 521.924 190.584 521.288 191.388 521.288C192.108 521.288 192.564 521.636 192.66 522.356C192.696 522.68 192.708 523.028 192.708 523.592V527H193.74V523.112C193.74 522.596 193.728 522.344 193.68 522.02ZM200.706 523.64C200.706 521.78 199.734 520.472 197.982 520.472C196.242 520.472 194.958 521.78 194.958 523.844C194.958 526.088 196.194 527.168 197.85 527.168C199.158 527.168 200.37 526.484 200.622 524.948H199.542C199.398 525.86 198.726 526.376 197.898 526.376C196.962 526.376 196.17 525.812 196.074 524.132H200.682C200.706 523.904 200.706 523.736 200.706 523.64ZM197.958 521.264C199.002 521.264 199.566 522.02 199.662 523.34H196.086C196.206 521.984 196.95 521.264 197.958 521.264ZM210.532 522.02C210.388 521.144 209.74 520.472 208.6 520.472C208.036 520.472 207.58 520.58 207.256 520.844L206.692 521.66C206.452 520.964 205.828 520.472 204.856 520.472C204.292 520.472 203.836 520.58 203.512 520.844L203.104 521.564V520.64H202.072V527H203.104V523.856C203.104 521.924 203.692 521.288 204.496 521.288C205.216 521.288 205.672 521.636 205.768 522.356C205.804 522.68 205.816 523.028 205.816 523.592V527H206.848V523.856C206.848 521.924 207.436 521.288 208.24 521.288C208.96 521.288 209.416 521.636 209.512 522.356C209.548 522.68 209.56 523.028 209.56 523.592V527H210.592V523.112C210.592 522.596 210.58 522.344 210.532 522.02ZM215.529 520.472C214.881 520.472 214.209 520.676 213.849 520.976L213.369 521.66V518.18H212.337V527H213.369V526.124L213.789 526.748C214.113 527.012 214.785 527.168 215.313 527.168C216.957 527.168 218.421 526.076 218.421 523.724C218.421 521.864 217.389 520.472 215.529 520.472ZM215.313 526.376C214.401 526.376 213.369 525.752 213.369 524.108V523.76C213.369 521.936 214.317 521.264 215.373 521.264C216.645 521.264 217.293 522.404 217.293 523.844C217.293 525.512 216.429 526.376 215.313 526.376ZM224.893 523.64C224.893 521.78 223.921 520.472 222.169 520.472C220.429 520.472 219.145 521.78 219.145 523.844C219.145 526.088 220.381 527.168 222.037 527.168C223.345 527.168 224.557 526.484 224.809 524.948H223.729C223.585 525.86 222.913 526.376 222.085 526.376C221.149 526.376 220.357 525.812 220.261 524.132H224.869C224.893 523.904 224.893 523.736 224.893 523.64ZM222.145 521.264C223.189 521.264 223.753 522.02 223.849 523.34H220.273C220.393 521.984 221.137 521.264 222.145 521.264ZM228.755 520.496C228.455 520.496 228.131 520.604 227.867 520.784L227.291 521.636V520.64H226.259V527H227.291V523.376C227.291 521.924 228.107 521.288 229.187 521.36V520.58C229.067 520.52 228.923 520.496 228.755 520.496ZM232.068 520.472C230.76 520.472 229.872 521.168 229.872 522.332C229.872 523.448 230.784 523.916 231.924 524.228C232.992 524.516 233.424 524.84 233.424 525.452C233.424 526.064 232.872 526.376 232.188 526.376C231.456 526.376 230.868 526.052 230.7 525.128H229.62C229.812 526.568 230.808 527.168 232.116 527.168C233.46 527.168 234.48 526.568 234.48 525.368C234.48 524.288 233.784 523.712 232.32 523.328C231.456 523.1 230.928 522.848 230.928 522.212C230.928 521.66 231.264 521.264 231.984 521.264C232.728 521.264 233.184 521.708 233.328 522.452H234.408C234.276 521.288 233.496 520.472 232.068 520.472Z" fill="#707070"/>
<defs>
<filter id="filter0_d_1_9999" x="468" y="152" width="252" height="132" filterUnits="userSpaceOnUse" color-interpolation-filters="sRGB">
<feFlood flood-opacity="0" result="BackgroundImageFix"/>
<feColorMatrix in="SourceAlpha" type="matrix" values="0 0 0 0 0 0 0 0 0 0 0 0 0 0 0 0 0 0 127 0" result="hardAlpha"/>
<feOffset dy="8"/>
<feGaussianBlur stdDeviation="15"/>
<feComposite in2="hardAlpha" operator="out"/>
<feColorMatrix type="matrix" values="0 0 0 0 0 0 0 0 0 0 0 0 0 0 0 0 0 0 0.06 0"/>
<feBlend mode="normal" in2="BackgroundImageFix" result="effect1_dropShadow_1_9999"/>
<feBlend mode="normal" in="SourceGraphic" in2="effect1_dropShadow_1_9999" result="shape"/>
</filter>
<filter id="filter1_d_1_9999" x="42" y="449" width="257" height="132" filterUnits="userSpaceOnUse" color-interpolation-filters="sRGB">
<feFlood flood-opacity="0" result="BackgroundImageFix"/>
<feColorMatrix in="SourceAlpha" type="matrix" values="0 0 0 0 0 0 0 0 0 0 0 0 0 0 0 0 0 0 127 0" result="hardAlpha"/>
<feOffset dy="8"/>
<feGaussianBlur stdDeviation="15"/>
<feComposite in2="hardAlpha" operator="out"/>
<feColorMatrix type="matrix" values="0 0 0 0 0 0 0 0 0 0 0 0 0 0 0 0 0 0 0.06 0"/>
<feBlend mode="normal" in2="BackgroundImageFix" result="effect1_dropShadow_1_9999"/>
<feBlend mode="normal" in="SourceGraphic" in2="effect1_dropShadow_1_9999" result="shape"/>
</filter>
</defs>
</svg>
