<svg width="132" height="33" viewBox="0 0 132 33" fill="none" xmlns="http://www.w3.org/2000/svg">
<path d="M21.1167 1.27273V26H17.1323L5.481 9.15696H5.27575V26H0.796342V1.27273H4.80487L16.4441 18.1278H16.6614V1.27273H21.1167ZM34.0146 26.3622C32.1552 26.3622 30.5494 25.9759 29.1971 25.2031C27.8529 24.4223 26.8185 23.3196 26.0941 21.8949C25.3697 20.4621 25.0075 18.7758 25.0075 16.8359C25.0075 14.9283 25.3697 13.254 26.0941 11.8132C26.8266 10.3643 27.8488 9.23745 29.1609 8.43253C30.4729 7.61955 32.0143 7.21307 33.7852 7.21307C34.9281 7.21307 36.0067 7.3982 37.021 7.76846C38.0432 8.13068 38.9447 8.69413 39.7255 9.45881C40.5143 10.2235 41.1341 11.1974 41.5849 12.3807C42.0356 13.5559 42.261 14.9564 42.261 16.5824V17.9226H27.06V14.9766H38.0714C38.0633 14.1394 37.8822 13.3949 37.5281 12.7429C37.1739 12.0829 36.6789 11.5637 36.043 11.1854C35.4151 10.8071 34.6826 10.6179 33.8455 10.6179C32.9521 10.6179 32.1673 10.8352 31.4911 11.2699C30.815 11.6965 30.2878 12.2599 29.9094 12.9602C29.5392 13.6525 29.35 14.4131 29.342 15.2422V17.8139C29.342 18.8925 29.5392 19.8182 29.9336 20.5909C30.328 21.3556 30.8794 21.9432 31.5877 22.3537C32.296 22.7562 33.1251 22.9574 34.0749 22.9574C34.7108 22.9574 35.2863 22.8688 35.8015 22.6918C36.3166 22.5066 36.7634 22.237 37.1417 21.8828C37.52 21.5286 37.8058 21.09 37.9989 20.5668L42.0799 21.0256C41.8223 22.1042 41.3313 23.0459 40.6069 23.8509C39.8905 24.6477 38.9729 25.2675 37.854 25.7102C36.7352 26.1449 35.4554 26.3622 34.0146 26.3622ZM49.6864 26L44.4464 7.45454H48.9016L52.1616 20.4943H52.3306L55.663 7.45454H60.07L63.4023 20.4219H63.5835L66.7951 7.45454H71.2624L66.0103 26H61.4585L57.9812 13.4673H57.7276L54.2504 26H49.6864ZM88.9718 12.3565L84.9874 12.7912C84.8747 12.3887 84.6775 12.0104 84.3958 11.6562C84.1221 11.3021 83.7518 11.0163 83.285 10.799C82.8181 10.5817 82.2466 10.473 81.5705 10.473C80.6609 10.473 79.8962 10.6702 79.2765 11.0646C78.6647 11.459 78.3629 11.9702 78.3709 12.598C78.3629 13.1373 78.5601 13.576 78.9625 13.9141C79.373 14.2521 80.0492 14.5298 80.9909 14.7472L84.1543 15.4233C85.909 15.8016 87.213 16.4013 88.0662 17.2223C88.9275 18.0433 89.3622 19.1179 89.3702 20.446C89.3622 21.6132 89.0201 22.6435 88.3439 23.5369C87.6758 24.4223 86.7462 25.1146 85.5549 25.6136C84.3636 26.1127 82.9952 26.3622 81.4498 26.3622C79.1799 26.3622 77.3527 25.8873 75.9682 24.9375C74.5837 23.9796 73.7587 22.6475 73.4931 20.9411L77.7551 20.5305C77.9483 21.3677 78.3588 21.9995 78.9867 22.4261C79.6145 22.8527 80.4315 23.0661 81.4377 23.0661C82.476 23.0661 83.3091 22.8527 83.937 22.4261C84.5729 21.9995 84.8908 21.4723 84.8908 20.8445C84.8908 20.3132 84.6855 19.8745 84.275 19.5284C83.8726 19.1823 83.2447 18.9167 82.3915 18.7315L79.2282 18.0675C77.4493 17.6972 76.1332 17.0734 75.28 16.196C74.4268 15.3106 74.0042 14.1918 74.0123 12.8395C74.0042 11.6965 74.3141 10.7064 74.9419 9.86932C75.5778 9.02415 76.4592 8.37216 77.5861 7.91335C78.7211 7.4465 80.0291 7.21307 81.5101 7.21307C83.6834 7.21307 85.3939 7.6759 86.6415 8.60156C87.8972 9.52723 88.6739 10.7789 88.9718 12.3565ZM92.9743 26V7.45454H97.345V26H92.9743ZM95.1717 4.82244C94.4795 4.82244 93.8838 4.59304 93.3848 4.13423C92.8857 3.66738 92.6362 3.10795 92.6362 2.45596C92.6362 1.79593 92.8857 1.2365 93.3848 0.777697C93.8838 0.310842 94.4795 0.077414 95.1717 0.077414C95.872 0.077414 96.4676 0.310842 96.9586 0.777697C97.4577 1.2365 97.7072 1.79593 97.7072 2.45596C97.7072 3.10795 97.4577 3.66738 96.9586 4.13423C96.4676 4.59304 95.872 4.82244 95.1717 4.82244ZM111.233 7.45454V10.8352H100.27V7.45454H111.233ZM103.011 26V5.70383C103.011 4.4562 103.268 3.41785 103.783 2.58878C104.307 1.75971 105.007 1.13991 105.884 0.729402C106.762 0.318891 107.736 0.113635 108.806 0.113635C109.563 0.113635 110.235 0.174005 110.822 0.294744C111.41 0.415482 111.845 0.524147 112.126 0.620738L111.257 4.00142C111.072 3.94507 110.839 3.88873 110.557 3.83238C110.275 3.76799 109.961 3.73579 109.615 3.73579C108.802 3.73579 108.227 3.933 107.888 4.32741C107.558 4.71378 107.393 5.26918 107.393 5.99361V26H103.011ZM117.373 32.9545C116.777 32.9545 116.225 32.9063 115.718 32.8097C115.219 32.7211 114.821 32.6165 114.523 32.4957L115.537 29.0909C116.173 29.276 116.741 29.3646 117.24 29.3565C117.739 29.3485 118.177 29.1915 118.556 28.8857C118.942 28.5878 119.268 28.0888 119.534 27.3885L119.908 26.3864L113.183 7.45454H117.819L122.093 21.4602H122.287L126.573 7.45454H131.221L123.796 28.2457C123.45 29.2277 122.991 30.0689 122.419 30.7692C121.848 31.4775 121.148 32.0168 120.319 32.3871C119.498 32.7654 118.516 32.9545 117.373 32.9545Z" fill="#1668E8"/>
</svg>
