<svg width="164" height="25" viewBox="0 0 164 25" fill="none" xmlns="http://www.w3.org/2000/svg">
<path fill-rule="evenodd" clip-rule="evenodd" d="M89.7767 11.3614C89.7767 11.3614 88.1851 10.3765 87.199 9.99544C87.199 9.99544 84.1505 8.58241 83.5455 7.91014C83.5455 7.91014 82.3582 6.79021 83.0529 5.49065C83.0529 5.49065 83.3442 4.63957 84.6 4.63957C84.6 4.63957 86.2347 4.72945 86.2347 6.07298V7.96834H92.093L92.0819 5.17705C92.0819 5.17705 92.5324 0.604782 85.1813 0.404526C85.1813 0.404526 79.4005 0.0244291 77.7423 3.13863C77.7423 3.13863 77.0914 3.83241 77.0914 6.25175V7.99998C77.0914 7.99998 77.0252 10.018 78.0558 11.3165C78.0558 11.3165 78.6383 12.1676 80.0728 13.1086C80.0728 13.1086 82.9855 14.678 84.7327 15.5751C84.7327 15.5751 86.4984 16.5825 86.2653 18.1845C86.2653 18.1845 86.1223 19.8306 84.4182 19.7631C84.4182 19.7631 82.8599 19.6926 82.8599 18.0793V16.185H76.6175V18.9376C76.6175 18.9376 76.4417 24.2005 84.465 24.2005C84.465 24.2005 92.1279 24.3567 92.4864 18.7986V16.559C92.4864 16.559 92.7563 13.1535 89.7767 11.3614Z" fill="#F5F5F5"/>
<path fill-rule="evenodd" clip-rule="evenodd" d="M59.7811 1.05835L57.8195 13.3517H57.361L55.4868 1.16846H45.7007L45.2109 23.4297H51.005L51.0743 6.65656H51.5298L54.6012 23.4262H60.6967L63.7304 6.6629H64.1338L64.2736 23.4297H70.0979L69.4716 1.05835H59.7811Z" fill="#F5F5F5"/>
<path fill-rule="evenodd" clip-rule="evenodd" d="M25.2925 1.15063L21.4375 23.4044H27.6747L29.9579 6.14957H30.4712L32.7538 23.4044H38.9904L35.1362 1.15063H25.2925Z" fill="#F5F5F5"/>
<path fill-rule="evenodd" clip-rule="evenodd" d="M156.172 11.0543V14.3381H157.771V17.8621C157.771 19.5836 156.299 19.6154 156.299 19.6154C154.509 19.6154 154.577 17.9785 154.577 17.9785V5.78934C154.577 4.53363 156.164 4.46628 156.164 4.46628C157.69 4.46628 157.701 5.96405 157.701 5.96405V7.8175H163.574C163.765 4.20059 163.044 3.32495 163.044 3.32495C161.588 0.0533133 156.076 0.232207 156.076 0.232207C147.608 0.232207 148.547 6.73035 148.547 6.73035V18.5159C148.729 24.6105 157.073 23.9924 157.215 23.9842C160.928 23.5735 162.048 22.3944 162.048 22.3944C163.08 21.6282 163.347 20.5676 163.347 20.5676C163.64 19.9494 163.715 17.9785 163.715 17.9785V11.0543H156.172Z" fill="#F5F5F5"/>
<path fill-rule="evenodd" clip-rule="evenodd" d="M136.705 14.6764H136.449L130.488 1.06342H123.359V23.4334H129.162L128.814 9.8219H129.073L135.247 23.4334H142.163V1.06201H136.286L136.705 14.6764Z" fill="#F5F5F5"/>
<path fill-rule="evenodd" clip-rule="evenodd" d="M109.193 17.8586C109.193 17.8586 109.278 19.6946 107.576 19.6946C107.576 19.6946 105.785 19.7906 105.785 17.9046L105.768 1.07666H99.4013V17.7707C99.4013 17.7707 98.7483 24.0891 107.665 24.0891C107.665 24.0891 115.413 24.181 115.413 18.0598V1.07773H109.193V17.8586Z" fill="#F5F5F5"/>
<path fill-rule="evenodd" clip-rule="evenodd" d="M13.1577 11.3613C13.1577 11.3613 11.5669 10.3764 10.5809 9.99529C10.5809 9.99529 7.53314 8.58434 6.92938 7.90999C6.92938 7.90999 5.74109 6.78917 6.43701 5.49154C6.43701 5.49154 6.72699 4.6404 7.98169 4.6404C7.98169 4.6404 9.61743 4.72936 9.61743 6.07283V7.96819H15.4779L15.4658 5.17586C15.4658 5.17586 15.9142 0.604604 8.56512 0.404378C8.56512 0.404378 8.01129 0.368581 7.19916 0.409535C7.19916 0.409535 2.7475 0.648579 1.15564 3.09047C1.14746 3.10784 1.13428 3.12212 1.12512 3.13848C1.12512 3.13848 0.475159 3.8312 0.475159 6.25161V7.99978C0.475159 7.99978 0.407837 10.0167 1.43976 11.3164C1.43976 11.3164 2.02112 12.1674 3.45667 13.1084C3.45667 13.1084 6.36743 14.6768 8.11554 15.5739C8.11554 15.5739 9.8819 16.5813 9.64917 18.1843C9.64917 18.1843 9.505 19.8304 7.80188 19.7629C7.80188 19.7629 6.24384 19.6925 6.24384 18.0792V16.1839H0.000305213V18.9375C0.000305213 18.9375 -0.174561 24.2003 7.84686 24.2003C7.84686 24.2003 15.5095 24.3566 15.8691 18.7985V16.5599C15.8691 16.5599 16.1379 13.1534 13.1577 11.3613Z" fill="#F5F5F5"/>
</svg>
