<svg width="162" height="50" viewBox="0 0 162 50" fill="none" xmlns="http://www.w3.org/2000/svg">
<path d="M24.2509 0.902344C10.8578 0.902344 0 11.7598 0 25.153C0 38.5475 10.8578 49.4044 24.2509 49.4044C37.6446 49.4044 48.5017 38.5475 48.5017 25.153C48.5017 11.7607 37.6451 0.903564 24.2506 0.903564L24.2509 0.902344ZM35.3722 35.8787C34.9366 36.593 34.0059 36.817 33.2938 36.3817C27.5991 32.901 20.4312 32.1149 11.9897 34.0432C11.1763 34.2299 10.3655 33.7198 10.1801 32.9067C9.99393 32.0933 10.5016 31.2823 11.317 31.0969C20.5549 28.9851 28.4788 29.8942 34.8709 33.8002C35.5833 34.2373 35.8091 35.1667 35.3719 35.8792L35.3722 35.8787ZM38.3404 29.2765C37.7919 30.1664 36.6284 30.4454 35.7397 29.8992C29.2225 25.8929 19.2847 24.7324 11.5745 27.0729C10.5745 27.3749 9.51842 26.8114 9.21494 25.8132C8.91377 24.8132 9.47761 23.7593 10.4758 23.4551C19.283 20.783 30.2317 22.0773 37.7175 26.6775C38.6066 27.2245 38.8875 28.3888 38.3401 29.2767L38.3404 29.2765H38.3404ZM38.5953 22.4004C30.7781 17.7582 17.884 17.3311 10.4216 19.5961C9.22333 19.9595 7.95609 19.2831 7.59295 18.0847C7.2298 16.8859 7.9057 15.6195 9.10488 15.2551C17.6712 12.6545 31.9116 13.1572 40.9102 18.4991C41.9881 19.1387 42.3416 20.5309 41.7028 21.6072C41.0657 22.6849 39.6699 23.0404 38.5955 22.4004H38.5953ZM65.9786 23.29C61.7914 22.2915 61.0461 21.5908 61.0461 20.1183C61.0461 18.7271 62.3559 17.7906 64.3036 17.7906C66.1917 17.7906 68.0639 18.5018 70.0267 19.9655C70.0861 20.0096 70.1605 20.0273 70.2338 20.0156C70.3071 20.0046 70.3719 19.9644 70.4148 19.9041L72.4593 17.0219C72.5433 16.9031 72.5204 16.7395 72.4071 16.649C70.071 14.7745 67.4404 13.8632 64.3656 13.8632C59.8446 13.8632 56.6866 16.5762 56.6866 20.4584C56.6866 24.6211 59.4108 26.0951 64.1183 27.2328C68.125 28.1556 68.8013 28.929 68.8013 30.3113C68.8013 31.8427 67.4338 32.7949 65.2332 32.7949C62.7891 32.7949 60.7956 31.9717 58.5655 30.0403C58.5102 29.9926 58.4343 29.9709 58.3642 29.975C58.2904 29.981 58.2229 30.0149 58.176 30.0717L55.8836 32.7999C55.7875 32.913 55.7997 33.082 55.9109 33.1799C58.5056 35.4963 61.6968 36.7197 65.1406 36.7197C70.0123 36.7197 73.1604 34.0581 73.1604 29.9381C73.1691 26.4602 71.087 24.5343 65.9873 23.2937L65.9786 23.29ZM84.182 19.1605C82.0704 19.1605 80.3384 19.9923 78.9101 21.6964V19.7782C78.9101 19.6266 78.7873 19.5035 78.6362 19.5035H74.8869C74.7354 19.5035 74.6129 19.6266 74.6129 19.7782V41.0923C74.6129 41.2439 74.7354 41.3672 74.8869 41.3672H78.6362C78.7873 41.3672 78.9101 41.2439 78.9101 41.0923V34.3644C80.3387 35.9677 82.071 36.7509 84.182 36.7509C88.1057 36.7509 92.0777 33.7305 92.0777 27.9568C92.0834 22.1816 88.1103 19.1603 84.1864 19.1603L84.182 19.1605ZM87.7179 27.9568C87.7179 30.8969 85.9068 32.9485 83.3136 32.9485C80.7499 32.9485 78.816 30.8037 78.816 27.9568C78.816 25.11 80.7499 22.9648 83.3136 22.9648C85.8648 22.9646 87.7182 25.0635 87.7182 27.9563L87.7179 27.9568ZM102.258 19.1605C97.2051 19.1605 93.2464 23.0514 93.2464 28.0194C93.2464 32.9336 97.1778 36.7837 102.196 36.7837C107.267 36.7837 111.238 32.9058 111.238 27.9568C111.238 23.0248 107.294 19.161 102.258 19.161L102.258 19.1605ZM102.258 32.9779C99.5704 32.9779 97.5442 30.8184 97.5442 27.9553C97.5442 25.08 99.5003 22.9934 102.196 22.9934C104.901 22.9934 106.941 25.153 106.941 28.0182C106.941 30.8929 104.972 32.9779 102.258 32.9779H102.258ZM122.028 19.5035H117.902V15.2852C117.902 15.1343 117.78 15.0107 117.629 15.0107H113.88C113.728 15.0107 113.605 15.1343 113.605 15.2852V19.5035H111.803C111.652 19.5035 111.529 19.6266 111.529 19.7782V23.0004C111.529 23.1515 111.652 23.2753 111.803 23.2753H113.605V31.6128C113.605 34.9821 115.282 36.6904 118.59 36.6904C119.934 36.6904 121.05 36.4126 122.102 35.8165C122.187 35.7688 122.24 35.6765 122.24 35.5786V32.5103C122.24 32.4156 122.191 32.3262 122.11 32.2764C122.028 32.2252 121.926 32.2227 121.843 32.264C121.121 32.6274 120.422 32.7952 119.642 32.7952C118.439 32.7952 117.902 32.249 117.902 31.0249V23.2769H122.028C122.18 23.2769 122.302 23.1533 122.302 23.002V19.78C122.307 19.6285 122.186 19.505 122.032 19.505L122.028 19.5035ZM136.403 19.52V19.002C136.403 17.4778 136.988 16.798 138.298 16.798C139.08 16.798 139.708 16.9532 140.411 17.1879C140.497 17.215 140.588 17.2015 140.658 17.1497C140.731 17.0977 140.771 17.0146 140.771 16.9266V13.7675C140.771 13.6466 140.694 13.5397 140.577 13.5039C139.835 13.283 138.884 13.0563 137.461 13.0563C133.998 13.0563 132.168 15.0065 132.168 18.6937V19.4872H130.367C130.215 19.4872 130.091 19.6105 130.091 19.7616V23.0004C130.091 23.1515 130.215 23.2753 130.367 23.2753H132.168V36.1356C132.168 36.287 132.29 36.4103 132.441 36.4103H136.19C136.342 36.4103 136.465 36.287 136.465 36.1356V23.2761H139.966L145.328 36.1332C144.719 37.4841 144.121 37.7528 143.304 37.7528C142.643 37.7528 141.947 37.5557 141.236 37.1665C141.169 37.1296 141.09 37.1234 141.018 37.1459C140.946 37.1711 140.886 37.2244 140.856 37.2939L139.585 40.0817C139.524 40.2136 139.576 40.3683 139.703 40.4366C141.03 41.1549 142.227 41.4614 143.707 41.4614C146.476 41.4614 148.006 40.1721 149.355 36.7029L155.859 19.8953C155.892 19.8105 155.882 19.7151 155.83 19.64C155.779 19.5657 155.696 19.5208 155.605 19.5208H151.702C151.585 19.5208 151.48 19.5951 151.442 19.705L147.443 31.1257L143.064 19.6975C143.024 19.5911 142.922 19.5208 142.808 19.5208H136.402L136.403 19.52ZM128.069 19.5035H124.32C124.168 19.5035 124.045 19.6266 124.045 19.7782V36.1356C124.045 36.287 124.168 36.4103 124.32 36.4103H128.069C128.22 36.4103 128.344 36.287 128.344 36.1356V19.7795C128.344 19.7064 128.315 19.6364 128.263 19.5846C128.212 19.5332 128.142 19.5043 128.069 19.5045L128.069 19.5035ZM126.216 12.0555C124.73 12.0555 123.525 13.2578 123.525 14.7433C123.525 16.2295 124.731 17.4332 126.216 17.4332C127.7 17.4332 128.904 16.2295 128.904 14.7433C128.904 13.2581 127.7 12.0555 126.217 12.0555H126.216ZM159.061 24.7625C157.577 24.7625 156.422 23.5709 156.422 22.1239C156.422 20.6768 157.592 19.4716 159.074 19.4716C160.558 19.4716 161.713 20.6628 161.713 22.1088C161.713 23.5559 160.543 24.7625 159.06 24.7625H159.061ZM159.075 19.734C157.723 19.734 156.701 20.8083 156.701 22.1239C156.701 23.4388 157.716 24.4988 159.061 24.4988C160.413 24.4988 161.436 23.4252 161.436 22.1088C161.436 20.7938 160.42 19.734 159.076 19.734H159.075H159.075ZM159.66 22.38L160.406 23.4249H159.777L159.105 22.4664H158.527V23.4249H158.001V20.6554H159.236C159.879 20.6554 160.302 20.9847 160.302 21.5388C160.305 21.9929 160.042 22.2704 159.662 22.3802H159.66V22.38ZM159.214 21.1307H158.527V22.0066H159.214C159.557 22.0066 159.762 21.8389 159.762 21.5681C159.762 21.2833 159.556 21.1307 159.214 21.1307H159.214Z" fill="white"/>
</svg>
