<svg width="110" height="47" viewBox="0 0 110 47" fill="none" xmlns="http://www.w3.org/2000/svg">
<path d="M8.27947 18.752C8.27947 17.5673 9.25158 17.1116 10.8616 17.1116C13.1704 17.1116 16.0867 17.8103 18.3955 19.0558V11.9169C15.8741 10.9144 13.383 10.5195 10.8616 10.5195C4.69483 10.5195 0.59375 13.7396 0.59375 19.1166C0.59375 27.501 12.1375 26.1643 12.1375 29.7794C12.1375 31.1768 10.9224 31.6324 9.2212 31.6324C6.6998 31.6324 3.47969 30.5996 0.927912 29.2022V36.4322C3.7531 37.6474 6.60866 38.1638 9.2212 38.1638C15.5399 38.1638 19.884 35.0348 19.884 29.5971C19.8536 20.5443 8.27947 22.1544 8.27947 18.752ZM28.8152 4.44381L21.4029 6.02349L21.3725 30.3565C21.3725 34.8525 24.7445 38.1638 29.2405 38.1638C31.7316 38.1638 33.5543 37.7081 34.5568 37.1613V30.9945C33.5846 31.3894 28.7849 32.7868 28.7849 28.2908V17.5065H34.5568V11.0359H28.7849L28.8152 4.44381ZM44.0044 13.2839L43.5184 11.0359H36.9566V37.617H44.5512V19.6026C46.3436 17.2635 49.3814 17.6888 50.3231 18.0229V11.0359C49.351 10.6714 45.7967 10.003 44.0044 13.2839ZM52.1762 11.0359H59.8012V37.617H52.1762V11.0359ZM52.1762 8.72716L59.8012 7.08673V0.919922L52.1762 2.52997V8.72716ZM75.6587 10.5195C72.6816 10.5195 70.7677 11.9169 69.7045 12.889L69.3096 11.0055H62.6264V46.4267L70.2209 44.8166L70.2513 36.2196C71.3449 37.0094 72.955 38.1334 75.6283 38.1334C81.066 38.1334 86.0177 33.7589 86.0177 24.129C85.9873 15.3193 80.9749 10.5195 75.6587 10.5195ZM73.836 31.4502C72.0436 31.4502 70.9804 30.8122 70.2513 30.0224L70.2209 18.752C71.0108 17.871 72.1044 17.2635 73.836 17.2635C76.6004 17.2635 78.5142 20.3621 78.5142 24.3416C78.5142 28.4123 76.6308 31.4502 73.836 31.4502ZM109.956 24.4328C109.956 16.6559 106.189 10.5195 98.9892 10.5195C91.7592 10.5195 87.3847 16.6559 87.3847 24.372C87.3847 33.5159 92.549 38.1334 99.9613 38.1334C103.576 38.1334 106.31 37.3132 108.376 36.1588V30.0831C106.31 31.116 103.941 31.754 100.933 31.754C97.9867 31.754 95.3742 30.7211 95.0401 27.1364H109.895C109.895 26.7415 109.956 25.1618 109.956 24.4328ZM94.9489 21.5468C94.9489 18.1141 97.045 16.6863 98.9589 16.6863C100.812 16.6863 102.787 18.1141 102.787 21.5468H94.9489Z" fill="white"/>
</svg>
