<svg width="86" height="29" viewBox="0 0 86 29" fill="none" xmlns="http://www.w3.org/2000/svg">
<path d="M37.1482 28.2761H30.1562L34.5264 1.41772H41.5191L37.1482 28.2761Z" fill="#F5F5F5"/>
<path d="M24.2731 1.41821L17.6062 19.8905L16.8181 15.9126L16.8188 15.914L14.4653 3.83717C14.4653 3.83717 14.1815 1.41821 11.1484 1.41821H0.128594L0 1.87226C0 1.87226 3.3708 2.57345 7.31346 4.94356L13.3884 28.2761H20.6738L31.7985 1.41821H24.2731Z" fill="#F5F5F5"/>
<path d="M79.2749 28.2761H85.6954L80.0975 1.41821H74.476C71.8796 1.41821 71.2474 3.41976 71.2474 3.41976L60.8203 28.2761H68.1079L69.5663 24.2873H78.4552L79.2749 28.2761ZM71.5807 18.7755L75.2554 8.72466L77.3223 18.7755H71.5807Z" fill="#F5F5F5"/>
<path d="M61.3604 7.87682L62.3575 2.10854C62.3575 2.10854 59.2784 0.9375 56.0685 0.9375C52.5986 0.9375 44.3591 2.45482 44.3591 9.8288C44.3591 16.7681 54.0297 16.8543 54.0297 20.4975C54.0297 24.1407 45.3556 23.4898 42.4934 21.1915L41.4531 27.2213C41.4531 27.2213 44.5746 28.7386 49.3463 28.7386C54.1173 28.7386 61.3166 26.2665 61.3166 19.5434C61.3166 12.5603 51.5583 11.9101 51.5583 8.87473C51.5583 5.83791 58.3682 6.22802 61.3604 7.87682Z" fill="#F5F5F5"/>
<path d="M16.8188 15.9133L14.4653 3.83644C14.4653 3.83644 14.1815 1.41748 11.1484 1.41748H0.128594L0 1.87153C0 1.87153 5.29687 2.97001 10.3782 7.08231C15.2347 11.0136 16.8188 15.9133 16.8188 15.9133Z" fill="#F5F5F5"/>
</svg>
